<svg xmlns="http://www.w3.org/2000/svg" viewBox="0 0 260.87 372.75"><defs><style>.cls-1{fill:#1d1d1b;}.cls-2{fill:none;}.cls-3{fill:#020202;}</style></defs><g id="Livello_2" data-name="Livello 2"><g id="Livello_1-2" data-name="Livello 1"><path class="cls-1" d="M186,39.74A59.91,59.91,0,0,0,75.74,40a57.43,57.43,0,0,0-2.91,8.74,49.78,49.78,0,0,1,8.69,3.17,49.44,49.44,0,0,1,2.89-8.79,50.71,50.71,0,0,1,92.9-.38,49.2,49.2,0,0,1,2.95,8.75,49.22,49.22,0,0,1,8.74-3A58.84,58.84,0,0,0,186,39.74Z"/><path class="cls-1" d="M75.74,40A59.91,59.91,0,1,0,51,157a60.6,60.6,0,0,0,8.89.66h.31v-9.19h-.31a50.71,50.71,0,1,1,0-101.41,50.57,50.57,0,0,1,12.92,1.67,49.78,49.78,0,0,1,8.69,3.17,49.44,49.44,0,0,1,2.89-8.79A57.32,57.32,0,0,0,75.74,40Z"/><path class="cls-1" d="M201,37.86a59.41,59.41,0,0,0-23.66,4.87,49.2,49.2,0,0,1,2.95,8.75,49.22,49.22,0,0,1,8.74-3,50.71,50.71,0,1,1,16.56,99.77q-2.26.21-4.59.21c-1.55,0-3.09-.07-4.6-.21v9.23c1.52.12,3,.18,4.6.18s3.07-.06,4.59-.18A59.9,59.9,0,0,0,201,37.86Z"/><path class="cls-2" d="M251.67,97.76a50.77,50.77,0,0,1-46.11,50.5q-2.26.21-4.59.21c-1.55,0-3.09-.07-4.6-.21V219.6H60.22V148.47h-.31a50.71,50.71,0,1,1,0-101.41,50.57,50.57,0,0,1,12.92,1.67,49.78,49.78,0,0,1,8.69,3.17,49.44,49.44,0,0,1,2.89-8.79,50.71,50.71,0,0,1,92.9-.38,49.2,49.2,0,0,1,2.95,8.75,49.22,49.22,0,0,1,8.74-3,50.71,50.71,0,0,1,62.67,49.27Z"/><path class="cls-1" d="M201,148.47c-1.55,0-3.09-.07-4.6-.21v102.8H60.22V148.47h-.31a51.12,51.12,0,0,1-8.89-.78V260.26H205.56v-112Q203.3,148.47,201,148.47Z"/><path class="cls-1" d="M51,219.6v40.66H205.56V219.6Zm145.35,31.46H60.22V228.8H196.37Z"/><path class="cls-1" d="M175.84,101.09l-7.35-6.65a50.61,50.61,0,1,0-75.1,0L86,101.09a60.52,60.52,0,1,1,89.8,0Z"/><rect class="cls-1" x="90.24" y="147.7" width="9.91" height="50.12"/><rect class="cls-1" x="125.99" y="147.7" width="9.91" height="50.12"/><rect class="cls-1" x="164.55" y="147.7" width="9.91" height="50.12"/><path class="cls-3" d="M40.12,326.55c.54-.11.79-.14,1-.21,4.86-1.47,5.89-5.42,2.32-9.07a6.87,6.87,0,0,0-5.92-2.37c-3.75.5-5.84,4.13-4.78,8.23,1.42,5.53,5.47,8.4,10.67,9.5,12.14,2.57,22-1,29.36-12.26,2.16-3.29,3.93-6.8,5.93-10.19,5.64-9.57,13.81-15.82,24.77-18.06,6.38-1.31,12.4.19,18,3.47a33.44,33.44,0,0,1,8.25,6.53c.75.85,1.14.65,1.83,0,4.28-4.29,9.08-7.79,15-9.43,7.93-2.18,15.27-.46,22.15,3.63a37.32,37.32,0,0,1,14,14.38c2.49,4.56,4.88,9.17,8.22,13.21,5,6,11.28,9.37,19.22,9.5,4.82.08,9.43-.5,13.49-3.35,3.87-2.73,5.76-7.26,4.63-11a5.29,5.29,0,0,0-6.49-4,7.75,7.75,0,0,0-6,5.17,4.19,4.19,0,0,0,2,5.25,10.78,10.78,0,0,0,2.93,1.18,9.77,9.77,0,0,1-7.59.49c-4.26-1.48-6.27-4.77-6.9-9-.84-5.63,3-14.26,10.44-15.73a23.48,23.48,0,0,1,12.84,1c6.74,2.46,11.72,6.77,13.45,14a23.61,23.61,0,0,1-2.09,16.05c-9.37,19.36-23.72,33-45.22,37.92a59.51,59.51,0,0,1-21.13.82,78.92,78.92,0,0,1-38-15.91,39.36,39.36,0,0,1-5.36-4.88c-.65-.71-1-.88-1.83-.08-10.88,10.74-24,17.14-38.94,20.17a60.62,60.62,0,0,1-13.77,1.25,60,60,0,0,1-40.46-16.41,66.41,66.41,0,0,1-16.43-22.85c-2.31-5.47-3.38-11.17-1.56-17,2.34-7.49,8-11.6,15.2-13.72a20.58,20.58,0,0,1,11-.39A14.47,14.47,0,0,1,54.09,321C52,326.67,46.13,329.13,40.12,326.55Z"/></g></g></svg>