<svg xmlns="http://www.w3.org/2000/svg" viewBox="0 0 713.28 235.07"><defs><style>.cls-1{fill:#95c11f;}.cls-2{fill:#1d1d1b;}.cls-3{fill:#f39200;}</style></defs><g id="Livello_2" data-name="Livello 2"><g id="Livello_1-2" data-name="Livello 1"><path class="cls-1" d="M512.11,228.07C484,228.07,461,205.73,461,178.26v-21H457.6v37.12a7,7,0,0,1-7,7h-24a45.42,45.42,0,0,1-17.71,3.58,46.86,46.86,0,0,1-32.06-13v.26a7,7,0,0,1-7,7h-30a7,7,0,0,1-7-7V99.23a5.94,5.94,0,0,0-11.87,0v92.93a7,7,0,0,1-7,7H284a7,7,0,0,1-7-7V56.81a7,7,0,0,1,7-7h30a6.9,6.9,0,0,1,2.9.63A49.93,49.93,0,0,1,376.5,93.49a48,48,0,0,1,.34,5.74v13.86a46.86,46.86,0,0,1,32.06-13,44.83,44.83,0,0,1,8.43.79,6.92,6.92,0,0,1,3.27-.81h30a7,7,0,0,1,7,7v6.17H461V97.43a7,7,0,0,1,7-7h30a7,7,0,0,1,7,7v15.79h3.33v-8.35a7,7,0,0,1,7-7h30a7,7,0,0,1,7,7v2.22a45.76,45.76,0,0,1,54,0v0a7,7,0,0,1,7-7h30a7,7,0,0,1,4.32,1.49,50.67,50.67,0,0,1,8.62-.74,50,50,0,0,1,49.51,43.37,48.5,48.5,0,0,1,.42,6.44v43.72a7,7,0,0,1-7,7h-30a7,7,0,0,1-7-7V150.6a5.94,5.94,0,0,0-11.87,0v43.72a7,7,0,0,1-7,7h-30a7,7,0,0,1-7-7v0a45.75,45.75,0,0,1-54.31-.2,7,7,0,0,1-6.73,5.07H519.11v21.92A7,7,0,0,1,512.11,228.07ZM505,178.26a5.74,5.74,0,0,0,3.33,4.9V157.22H505ZM408.9,144.07c-1.89,0-4.7,3.54-4.7,8.43s2.81,8.42,4.7,8.42,4.7-3.54,4.7-8.42S410.79,144.07,408.9,144.07Zm170.49-1.81c-1.89,0-4.7,3.54-4.7,8.42s2.81,8.43,4.7,8.43,4.7-3.54,4.7-8.43S581.28,142.26,579.39,142.26Z"/><path class="cls-2" d="M326.91,56.42a43,43,0,0,1,42.64,37.87,42.41,42.41,0,0,1,.29,4.94V136.6c5.92-17.23,21.2-29.53,39.06-29.53a38.24,38.24,0,0,1,11.7,1.83v-1.85h30v13.17H468V97.43h30v22.79h17.33V104.87h30v19.56c7.56-11.59,20-19.17,34-19.17s26.47,7.59,34,19.19V107h30v2.74a43,43,0,0,1,55.51,35.28,42.14,42.14,0,0,1,.36,5.54v43.72h-30V150.6a12.94,12.94,0,0,0-25.87,0v43.72h-30V176.91c-7.55,11.61-20,19.2-34,19.2s-26.46-7.58-34-19.18v15.22h-30V150.22H498v28c0,7.06,6.31,12.81,14.07,12.81v30c-24.3,0-44.07-19.21-44.07-42.81v-28H450.55c0-.13,0-.26,0-.39v.39h0c0,.76.05,1.52.05,2.28v41.84H425.14a38.7,38.7,0,0,1-16.24,3.58c-17.86,0-33.14-12.3-39.06-29.53v23.77h-30V99.23a12.94,12.94,0,0,0-25.87,0v92.93H284V56.81h30v1.6a42.87,42.87,0,0,1,12.94-2M579.39,166.11c6.34,0,11.7-7.07,11.7-15.43s-5.36-15.42-11.7-15.42-11.7,7.06-11.7,15.42,5.36,15.43,11.7,15.43M408.9,167.92c6.35,0,11.7-7.06,11.7-15.42s-5.35-15.43-11.7-15.43-11.7,7.07-11.7,15.43,5.36,15.42,11.7,15.42m-82-125.5a57.43,57.43,0,0,0-9.55.8,14,14,0,0,0-3.39-.41H284a14,14,0,0,0-14,14V192.16a14,14,0,0,0,14,14h30a14,14,0,0,0,12.94-8.63,14,14,0,0,0,12.93,8.63h30a14,14,0,0,0,9.27-3.51,53,53,0,0,0,29.79,9.27A52.26,52.26,0,0,0,428,208.34H450.6a14,14,0,0,0,9.88-4.08,58.31,58.31,0,0,0,51.63,30.81,14,14,0,0,0,14-14V206.15h19.26a13.92,13.92,0,0,0,8.33-2.75,52.49,52.49,0,0,0,49.82.83,13.94,13.94,0,0,0,9.89,4.09h30a14,14,0,0,0,12.93-8.63,14,14,0,0,0,12.94,8.63h30a14,14,0,0,0,14-14V150.6a56.24,56.24,0,0,0-.48-7.38,57,57,0,0,0-56.45-49.43,56.3,56.3,0,0,0-7.24.46,13.9,13.9,0,0,0-5.7-1.21h-30a13.94,13.94,0,0,0-9.89,4.09,52.49,52.49,0,0,0-46.94-.65,14,14,0,0,0-11.21-5.61h-30a13.89,13.89,0,0,0-4.58.77A14,14,0,0,0,498,83.43H468a14,14,0,0,0-13.48,10.19,13.94,13.94,0,0,0-4-.57h-30a13.67,13.67,0,0,0-4,.59,51.83,51.83,0,0,0-7.68-.57,52.65,52.65,0,0,0-25.06,6.4v-.24a55.68,55.68,0,0,0-.39-6.57,56.85,56.85,0,0,0-56.54-50.24Z"/><path class="cls-1" d="M530.37,107.33A26.61,26.61,0,1,1,557,80.72,26.64,26.64,0,0,1,530.37,107.33Z"/><path class="cls-2" d="M530.37,61.12a19.61,19.61,0,1,1-19.6,19.6,19.63,19.63,0,0,1,19.6-19.6m0-14A33.61,33.61,0,1,0,564,80.72a33.63,33.63,0,0,0-33.6-33.6Z"/><path class="cls-3" d="M226.74,202.75a46.65,46.65,0,0,1-31.32-12.3,46,46,0,0,1-62.62,0A46.09,46.09,0,0,1,67.61,188v4.21a7,7,0,0,1-7,7h-30a7,7,0,0,1-7-7V110.35H14a7,7,0,0,1-7-7v-30a7,7,0,0,1,7-7h9.61V56.81a6.55,6.55,0,0,1,.13-1.34C24.47,28.62,47.09,7,74.78,7c28.15,0,51.06,22.34,51.06,49.81a7,7,0,0,1-7,7h-30a7,7,0,0,1-7-7c0-3.15-3.23-5.81-7.06-5.81s-7.06,2.66-7.06,5.81a7.36,7.36,0,0,1-.11,1.25v8.29H88.5a7,7,0,0,1,7,7v25a44,44,0,0,1,6-.4,46.65,46.65,0,0,1,31.32,12.3,46,46,0,0,1,62.62,0,46.62,46.62,0,0,1,31.32-12.3,46.08,46.08,0,0,1,4.7.24V56.81a7,7,0,0,1,7-7h30a7,7,0,0,1,7,7V192.16a7,7,0,0,1-7,7h-24A45.36,45.36,0,0,1,226.74,202.75Zm0-60.85c-1.89,0-4.7,3.54-4.7,8.43s2.81,8.42,4.7,8.42,4.7-3.54,4.7-8.42S228.63,141.9,226.74,141.9Zm-62.63,0c-1.89,0-4.7,3.54-4.7,8.43s2.81,8.42,4.7,8.42,4.7-3.54,4.7-8.42S166,141.9,164.11,141.9Zm-62.63,0c-1.89,0-4.7,3.54-4.7,8.43s2.81,8.42,4.7,8.42,4.7-3.54,4.7-8.42S103.37,141.9,101.48,141.9ZM67.61,112.7c.78-.81,1.58-1.6,2.41-2.35H67.61Z"/><path class="cls-2" d="M74.78,14c24.29,0,44.06,19.2,44.06,42.81h-30C88.84,49.74,82.53,44,74.78,44S60.72,49.74,60.72,56.81h-.11V73.35H88.5v30H60.61v38c3.85-20.74,20.72-36.4,40.87-36.4,12.47,0,23.67,6,31.32,15.47,7.63-9.48,18.84-15.47,31.31-15.47s23.67,6,31.31,15.47c7.64-9.48,18.85-15.47,31.32-15.47a38.54,38.54,0,0,1,11.7,1.82V56.81h30V192.16H243a38.56,38.56,0,0,1-16.24,3.59c-12.47,0-23.67-6-31.32-15.46-7.64,9.47-18.85,15.46-31.31,15.46s-23.67-6-31.31-15.46c-7.65,9.47-18.86,15.46-31.32,15.46-20.15,0-37-15.66-40.87-36.39v32.8h-30V103.35H14v-30H30.61V56.81h.11C30.72,33.2,50.48,14,74.78,14m152,151.75c6.34,0,11.7-7.06,11.7-15.42s-5.36-15.43-11.7-15.43S215,142,215,150.33s5.35,15.42,11.7,15.42m-62.63,0c6.34,0,11.7-7.06,11.7-15.42s-5.36-15.43-11.7-15.43-11.7,7.06-11.7,15.43,5.36,15.42,11.7,15.42m-62.63,0c6.34,0,11.7-7.06,11.7-15.42s-5.36-15.43-11.7-15.43-11.7,7.06-11.7,15.43,5.36,15.42,11.7,15.42M74.78,0c-31.32,0-56.93,24.39-58,54.78a13.57,13.57,0,0,0-.15,2v2.54H14a14,14,0,0,0-14,14v30a14,14,0,0,0,14,14h2.61v74.81a14,14,0,0,0,14,14h30a14,14,0,0,0,11.19-5.58,52.72,52.72,0,0,0,61-1.12,52.78,52.78,0,0,0,62.62,0,53.24,53.24,0,0,0,31.32,10.29,52.29,52.29,0,0,0,19.08-3.59h22.62a14,14,0,0,0,14-14V56.81a14,14,0,0,0-14-14h-30a14,14,0,0,0-14,14V91a53.29,53.29,0,0,0-29,10.24,52.79,52.79,0,0,0-62.63,0A53.23,53.23,0,0,0,102.5,90.91V73.35a14.12,14.12,0,0,0-.23-2.54h16.57a14,14,0,0,0,14-14c0-31.33-26-56.81-58.06-56.81Zm-.11,58h.22q.06.69.18,1.35h-.46v-.78l.06-.57Z"/></g></g></svg>