<svg xmlns="http://www.w3.org/2000/svg" xmlns:xlink="http://www.w3.org/1999/xlink" viewBox="0 0 615.73 615.73"><defs><style>.cls-1,.cls-2,.cls-47,.cls-48{stroke-miterlimit:10;}.cls-1,.cls-2{stroke-width:3px;}.cls-1{fill:url(#Sfumatura_senza_nome_1613);stroke:url(#Sfumatura_senza_nome_1585);}.cls-2{fill:url(#Sfumatura_senza_nome_1607);stroke:url(#Sfumatura_senza_nome_1585-2);}.cls-3{fill:url(#Sfumatura_senza_nome_637);}.cls-4{fill:url(#Sfumatura_senza_nome_1169);}.cls-5{fill:url(#Sfumatura_senza_nome_1304);}.cls-47,.cls-6{fill:#fff;}.cls-7{fill:url(#Sfumatura_senza_nome_1169-2);}.cls-8{fill:url(#Sfumatura_senza_nome_1299);}.cls-9{fill:url(#Sfumatura_senza_nome_1496);}.cls-10{fill:url(#Sfumatura_senza_nome_1304-2);}.cls-11{fill:url(#Sfumatura_senza_nome_1304-3);}.cls-12{fill:url(#Sfumatura_senza_nome_1304-4);}.cls-13{fill:url(#Sfumatura_senza_nome_1304-5);}.cls-14{fill:url(#Sfumatura_senza_nome_1304-6);}.cls-15{fill:url(#Sfumatura_senza_nome_1304-7);}.cls-16{fill:url(#Sfumatura_senza_nome_1304-8);}.cls-17{fill:url(#Sfumatura_senza_nome_1304-9);}.cls-18{fill:url(#Sfumatura_senza_nome_1304-10);}.cls-19{fill:url(#Sfumatura_senza_nome_1304-11);}.cls-20{fill:url(#Sfumatura_senza_nome_1304-12);}.cls-21{fill:url(#Sfumatura_senza_nome_1304-13);}.cls-22{fill:url(#Sfumatura_senza_nome_1304-14);}.cls-23{fill:url(#Sfumatura_senza_nome_1304-15);}.cls-24{fill:url(#Sfumatura_senza_nome_1304-16);}.cls-25{fill:url(#Sfumatura_senza_nome_1304-17);}.cls-26{fill:url(#Sfumatura_senza_nome_1304-18);}.cls-27{fill:url(#Sfumatura_senza_nome_1304-19);}.cls-28{fill:url(#Sfumatura_senza_nome_1299-2);}.cls-29{fill:url(#Sfumatura_senza_nome_1304-20);}.cls-30{fill:url(#Sfumatura_senza_nome_1304-21);}.cls-31{fill:url(#Sfumatura_senza_nome_1264);}.cls-32{fill:url(#Sfumatura_senza_nome_1299-3);}.cls-33{fill:url(#Sfumatura_senza_nome_1304-22);}.cls-34{fill:url(#Sfumatura_senza_nome_1299-4);}.cls-35{fill:url(#Sfumatura_senza_nome_1304-23);}.cls-36{fill:url(#Sfumatura_senza_nome_1304-24);}.cls-37{fill:url(#Sfumatura_senza_nome_1304-25);}.cls-38{fill:url(#Sfumatura_senza_nome_1304-26);}.cls-39{fill:url(#Sfumatura_senza_nome_1304-27);}.cls-40{fill:url(#Sfumatura_senza_nome_1304-28);}.cls-41{fill:url(#Sfumatura_senza_nome_1304-29);}.cls-42{fill:url(#Sfumatura_senza_nome_1304-30);}.cls-43{fill:url(#Sfumatura_senza_nome_1304-31);}.cls-44{fill:url(#Sfumatura_senza_nome_1304-32);}.cls-45{fill:url(#Sfumatura_senza_nome_1304-33);}.cls-46{fill:url(#Sfumatura_senza_nome_1304-34);}.cls-47,.cls-48{stroke:#1d1d1b;}.cls-47{stroke-width:9px;}.cls-48{fill:none;stroke-width:12px;}</style><linearGradient id="Sfumatura_senza_nome_1613" x1="307.86" y1="6" x2="307.86" y2="609.92" gradientUnits="userSpaceOnUse"><stop offset="0" stop-color="#e94e1b"/><stop offset="0.05" stop-color="#ea5319"/><stop offset="0.45" stop-color="#ef750b"/><stop offset="0.78" stop-color="#f28a03"/><stop offset="1" stop-color="#f39200"/></linearGradient><linearGradient id="Sfumatura_senza_nome_1585" x1="3.95" y1="307.96" x2="611.77" y2="307.96" gradientUnits="userSpaceOnUse"><stop offset="0" stop-color="#fff"/><stop offset="0.5" stop-color="#8f8f8e"/><stop offset="0.65" stop-color="#868585"/><stop offset="1"/></linearGradient><linearGradient id="Sfumatura_senza_nome_1607" x1="308.95" y1="289.01" x2="308.95" y2="609.92" gradientUnits="userSpaceOnUse"><stop offset="0" stop-color="#fff"/><stop offset="0.35" stop-color="#fdfdfd"/><stop offset="0.49" stop-color="#f6f6f6"/><stop offset="0.59" stop-color="#eaeaea"/><stop offset="0.67" stop-color="#d9d9d9"/><stop offset="0.74" stop-color="#c2c2c2"/><stop offset="0.8" stop-color="#a7a7a7"/><stop offset="0.85" stop-color="#868686"/><stop offset="0.9" stop-color="#5f5f5f"/><stop offset="0.95" stop-color="#343434"/><stop offset="1" stop-color="#060606"/><stop offset="1"/></linearGradient><linearGradient id="Sfumatura_senza_nome_1585-2" x1="5.59" y1="449.47" x2="612.32" y2="449.47" xlink:href="#Sfumatura_senza_nome_1585"/><linearGradient id="Sfumatura_senza_nome_637" x1="137.63" y1="336.65" x2="478.5" y2="336.65" gradientUnits="userSpaceOnUse"><stop offset="0" stop-color="#8b141b"/><stop offset="1" stop-color="#e4032e"/></linearGradient><linearGradient id="Sfumatura_senza_nome_1169" x1="241.71" y1="239.94" x2="328.4" y2="239.94" gradientUnits="userSpaceOnUse"><stop offset="0" stop-color="#088036"/><stop offset="1" stop-color="#136b30"/></linearGradient><radialGradient id="Sfumatura_senza_nome_1304" cx="134.53" cy="455.98" r="59.54" gradientUnits="userSpaceOnUse"><stop offset="0" stop-color="#d5b000"/><stop offset="1" stop-color="#d6d900"/></radialGradient><linearGradient id="Sfumatura_senza_nome_1169-2" x1="332.81" y1="259.26" x2="434.46" y2="259.26" xlink:href="#Sfumatura_senza_nome_1169"/><linearGradient id="Sfumatura_senza_nome_1299" x1="32.98" y1="426.76" x2="323.03" y2="426.76" xlink:href="#Sfumatura_senza_nome_1304"/><linearGradient id="Sfumatura_senza_nome_1496" x1="41.81" y1="524.1" x2="258.31" y2="524.1" gradientUnits="userSpaceOnUse"><stop offset="0" stop-color="#6b6b6a"/><stop offset="0.63" stop-color="#cacaca"/><stop offset="1" stop-color="#fff"/></linearGradient><radialGradient id="Sfumatura_senza_nome_1304-2" cx="519.56" cy="425.9" r="50.79" xlink:href="#Sfumatura_senza_nome_1304"/><radialGradient id="Sfumatura_senza_nome_1304-3" cx="159.13" cy="462.31" r="56.47" xlink:href="#Sfumatura_senza_nome_1304"/><radialGradient id="Sfumatura_senza_nome_1304-4" cx="498.06" cy="430.32" r="52.51" xlink:href="#Sfumatura_senza_nome_1304"/><radialGradient id="Sfumatura_senza_nome_1304-5" cx="300.04" cy="494.07" r="48.86" xlink:href="#Sfumatura_senza_nome_1304"/><radialGradient id="Sfumatura_senza_nome_1304-6" cx="347.22" cy="523.16" r="31.83" xlink:href="#Sfumatura_senza_nome_1304"/><radialGradient id="Sfumatura_senza_nome_1304-7" cx="279.08" cy="483.31" r="54.14" xlink:href="#Sfumatura_senza_nome_1304"/><radialGradient id="Sfumatura_senza_nome_1304-8" cx="173.54" cy="479.23" r="49.53" xlink:href="#Sfumatura_senza_nome_1304"/><radialGradient id="Sfumatura_senza_nome_1304-9" cx="380.83" cy="426.96" r="28.56" xlink:href="#Sfumatura_senza_nome_1304"/><radialGradient id="Sfumatura_senza_nome_1304-10" cx="88.59" cy="454.87" r="38.17" xlink:href="#Sfumatura_senza_nome_1304"/><radialGradient id="Sfumatura_senza_nome_1304-11" cx="359.63" cy="504.66" r="41.86" xlink:href="#Sfumatura_senza_nome_1304"/><radialGradient id="Sfumatura_senza_nome_1304-12" cx="249.08" cy="500.25" r="36.64" xlink:href="#Sfumatura_senza_nome_1304"/><radialGradient id="Sfumatura_senza_nome_1304-13" cx="438.01" cy="471.64" r="44.39" xlink:href="#Sfumatura_senza_nome_1304"/><radialGradient id="Sfumatura_senza_nome_1304-14" cx="422.03" cy="463.77" r="51.55" xlink:href="#Sfumatura_senza_nome_1304"/><radialGradient id="Sfumatura_senza_nome_1304-15" cx="376.66" cy="408.55" r="31.64" xlink:href="#Sfumatura_senza_nome_1304"/><radialGradient id="Sfumatura_senza_nome_1304-16" cx="224.71" cy="504.26" r="26.96" xlink:href="#Sfumatura_senza_nome_1304"/><radialGradient id="Sfumatura_senza_nome_1304-17" cx="389.54" cy="481.39" r="30.64" xlink:href="#Sfumatura_senza_nome_1304"/><radialGradient id="Sfumatura_senza_nome_1304-18" cx="476.74" cy="436.4" r="51.92" xlink:href="#Sfumatura_senza_nome_1304"/><radialGradient id="Sfumatura_senza_nome_1304-19" cx="196.2" cy="494.54" r="36.07" xlink:href="#Sfumatura_senza_nome_1304"/><linearGradient id="Sfumatura_senza_nome_1299-2" x1="69.86" y1="397.21" x2="181.24" y2="397.21" xlink:href="#Sfumatura_senza_nome_1304"/><radialGradient id="Sfumatura_senza_nome_1304-20" cx="482.63" cy="479.88" r="24.28" xlink:href="#Sfumatura_senza_nome_1304"/><radialGradient id="Sfumatura_senza_nome_1304-21" cx="242.94" cy="441.97" r="20.73" xlink:href="#Sfumatura_senza_nome_1304"/><linearGradient id="Sfumatura_senza_nome_1264" x1="79.81" y1="411.04" x2="156.93" y2="366.51" gradientUnits="userSpaceOnUse"><stop offset="0" stop-color="#d5b000"/><stop offset="1" stop-color="#a49700"/></linearGradient><linearGradient id="Sfumatura_senza_nome_1299-3" x1="172.17" y1="401.68" x2="221.3" y2="373.32" xlink:href="#Sfumatura_senza_nome_1304"/><radialGradient id="Sfumatura_senza_nome_1304-22" cx="331.83" cy="536.04" r="23.08" xlink:href="#Sfumatura_senza_nome_1304"/><linearGradient id="Sfumatura_senza_nome_1299-4" x1="254.32" y1="436.82" x2="271.56" y2="436.82" xlink:href="#Sfumatura_senza_nome_1304"/><radialGradient id="Sfumatura_senza_nome_1304-23" cx="316.07" cy="545.8" r="16.86" xlink:href="#Sfumatura_senza_nome_1304"/><radialGradient id="Sfumatura_senza_nome_1304-24" cx="398.42" cy="383.3" r="16.49" xlink:href="#Sfumatura_senza_nome_1304"/><radialGradient id="Sfumatura_senza_nome_1304-25" cx="475.53" cy="496.94" r="19.81" xlink:href="#Sfumatura_senza_nome_1304"/><radialGradient id="Sfumatura_senza_nome_1304-26" cx="368.04" cy="460.69" r="16.05" xlink:href="#Sfumatura_senza_nome_1304"/><radialGradient id="Sfumatura_senza_nome_1304-27" cx="282.19" cy="431.21" r="17.43" xlink:href="#Sfumatura_senza_nome_1304"/><radialGradient id="Sfumatura_senza_nome_1304-28" cx="452.69" cy="519.69" r="12.03" xlink:href="#Sfumatura_senza_nome_1304"/><radialGradient id="Sfumatura_senza_nome_1304-29" cx="299.87" cy="423.08" r="14.89" xlink:href="#Sfumatura_senza_nome_1304"/><radialGradient id="Sfumatura_senza_nome_1304-30" cx="465.54" cy="508.23" r="14.26" xlink:href="#Sfumatura_senza_nome_1304"/><radialGradient id="Sfumatura_senza_nome_1304-31" cx="411.48" cy="457.73" r="13.48" xlink:href="#Sfumatura_senza_nome_1304"/><radialGradient id="Sfumatura_senza_nome_1304-32" cx="321.89" cy="405.2" r="11.94" xlink:href="#Sfumatura_senza_nome_1304"/><radialGradient id="Sfumatura_senza_nome_1304-33" cx="474.24" cy="442.06" r="10.81" xlink:href="#Sfumatura_senza_nome_1304"/><radialGradient id="Sfumatura_senza_nome_1304-34" cx="348.61" cy="396.91" r="4.71" xlink:href="#Sfumatura_senza_nome_1304"/></defs><g id="Livello_2" data-name="Livello 2"><g id="Livello_1-2" data-name="Livello 1"><rect class="cls-1" x="5.45" y="6" width="604.82" height="603.92" rx="115.95"/><path class="cls-2" d="M306.23,289H279.67l-26.27,3.06L206.7,312.5l-14.19,1.11L174.31,329l-23.16,15.32L138.72,349l-7,6.94-12.24-2.58-30.92,5.25-41,20.7L7.09,394.62V498.05A111.88,111.88,0,0,0,119,609.92H488.73A122.09,122.09,0,0,0,610.82,487.84v-91L580.7,380.88,566,371.12l-16.55-9.07-24.08-5.62-18.69,1.21-17.52-6.56-12.54-3.29-36.07-11-13.13-15.89-36.8-24.1-33-4.51-25.42,2.26Z"/><path d="M8.63,404.71v-17.6A14.28,14.28,0,0,0,11.19,386c26.92-18.42,56.5-30.86,88-39.07,3.21-.84,6.49-1.4,9.73-2.15,1.8-.41,3.56-1,5.35-1.45a12.55,12.55,0,0,1,3.14-.69c3.32,0,6.26-1.3,9.33-2.25,15.73-4.87,30.06-12.57,43.86-21.39,6.91-4.43,13.86-8.81,20.87-13.08,15.17-9.22,31-17.11,48.22-21.67,8.13-2.14,16.33-3.87,25.4-4-1-.91-1.5-1.52-2.13-2-9.41-7.09-16.33-16.18-21.49-26.7-3.65-7.46-5.55-15.42-6.93-23.53a310.4,310.4,0,0,1-4-32.57c-.24-3.81-.45-7.6.44-11.38,1.12-4.82,3.21-6.45,8.1-5.91,2,.22,4,.9,6,1.15,4.06.49,8.14,1,12.22,1.18,5.37.2,10.76-.12,16.12.08,14.32.54,26.8,5.81,37.51,15.24a77.61,77.61,0,0,1,25.64,45c.11.57.29,1.11.45,1.66,0,.07.16.1.35.22a6.2,6.2,0,0,0,.85-.65c10.41-11.05,23.49-17.25,38-20.87,17.3-4.31,34-2,50.1,5,4.45,1.94,8.56,4.7,12.69,7.29a19.82,19.82,0,0,1,4.29,3.95c1.36,1.54,2.4,3.23,1.84,5.58-.3,1.27.24,2.72.09,4.06a17.72,17.72,0,0,1-3.58,9.15,84.2,84.2,0,0,1-17.37,16.51,142.07,142.07,0,0,1-26.73,15.15c-.63.26-1.26.53-1.87.84-.14.06-.19.29-.4.64.67.33,1.31.69,2,1a241.5,241.5,0,0,1,33.69,17.73q15,9.4,30.18,18.65c11.16,6.83,23.43,11.13,35.74,15.32a9.81,9.81,0,0,0,1.41.39,227.47,227.47,0,0,1,27.1,6c28.95,8.2,56.33,19.92,81.35,36.87,2.21,1.49,3.16,3.07,3,5.73-.21,3.8-.05,7.62-.07,11.43a12.41,12.41,0,0,1-.29,1.66c-.71-.45-1.19-.71-1.63-1-22.41-17.08-47.52-28.85-74.09-37.78a230.13,230.13,0,0,0-35.56-8.64,7.81,7.81,0,0,1-3.09-.82,8,8,0,0,1-5-.18c-7.5,2.4.06-1.09-3.48,1.19,3.39,1.3,3.84,1.46,6,2.29,22.75,8.27,40.94,23.1,61.62,35.7a190.48,190.48,0,0,1,29.09,22.22c7.81,7.11,13.64,15.58,15.84,26.15a45.29,45.29,0,0,1,.93,7,79,79,0,0,1-3.51,27.77,52.36,52.36,0,0,1-9.6,17.66,95.76,95.76,0,0,1-19.37,17.8c-12.51,8.7-26.24,15.05-40.21,21-20.75,8.81-42.38,14.84-64.14,20.45-15.32,3.95-30.66,7.78-46.29,10.29-12.34,2-24.69,3.93-37.07,5.6C369.93,572,360,573.05,350.09,574c-6,.56-12.1.88-18.15.95q-20.54.23-41.06.08a322.56,322.56,0,0,1-41.78-3c-15.58-2.12-31.15-4.28-46.68-6.75-17.46-2.77-34.59-7.16-51.68-11.66-18-4.75-36-9.74-53.34-16.81-13.85-5.66-27.57-11.55-40.3-19.54a114.32,114.32,0,0,1-20.78-16.63C25.73,489.82,20.54,476.8,19.18,462c-.62-6.66-.73-13.28.84-19.83,2.39-9.95,7.92-18,15.33-24.83a184.43,184.43,0,0,1,28.55-22c18.23-11.11,39-31.82,59.05-39.33,6-2.26,2.91-1.13,9.23-3.55-.79-.51,5.95,6.75,5.37,6.51-2.24-.95-4.51-1.85-6.78-2.76a9.86,9.86,0,0,0-7.82-.2c-3.12,1.23-6.66,1.38-10,2-22.24,4.21-43.24,12.08-63.61,21.74a219.8,219.8,0,0,0-37.77,23c-.93.7-1.94,1.3-2.92,1.94M143,347.53c5.56,3.39,11,7,16.73,10.17,10,5.54,20.71,8.09,32.17,6.51,3.47-.48,6.9-1.33,10.34-2.07a28.69,28.69,0,0,1,21,3.05c2.88,1.64,5.89,3.08,8.9,4.47,10.48,4.86,21.12,9.28,32.72,10.72,9.33,1.16,18.33.51,26.65-4.48,2.42-1.45,5-2.65,7.56-3.86a23.07,23.07,0,0,1,20.88.06c2.64,1.27,5.3,2.52,7.83,4A36.72,36.72,0,0,0,348,380.85a76.16,76.16,0,0,0,27.27-6.27c7.28-3.09,14.41-6.52,21.51-10a27.28,27.28,0,0,1,17-2.83c3,.52,6,1,8.91,1.71,13.29,3,25.59.26,37.24-6.25,5.2-2.91,10.29-6,15.42-9,.25-.14,0,1.13.48.8-2.58-1.05-4.33-3.37-6.54-4.33a276.63,276.63,0,0,1-29.89-15.54,16.08,16.08,0,0,0-4-1.68c-2-.52-4-.72-6-1.13-8.24-1.67-16.13-1-23.45,3.49-2.32,1.43-4.63,2.89-7,4.32-1,.61-2.09,1.31-3.23.37s-.84-2.17-.44-3.26a9.71,9.71,0,0,1,1.72-3,23.64,23.64,0,0,1,3.86-3.56,35,35,0,0,1,14.71-6.22c1.3-.22,2.58-.52,4.29-.86a16.5,16.5,0,0,0-1.68-1.24c-7.7-4-15.33-8.21-23.14-12a104.4,104.4,0,0,0-20.88-7.63,10.28,10.28,0,0,0-3.74-.25c-5.12.73-10.2,1.82-15.33,2.38-8.46.91-17,1.84-25.43.26-5.35-1-10.67-.81-16-1.1-7-.38-13.92-1.84-20.83-3.13a118.36,118.36,0,0,0-17.1-2.36,101,101,0,0,0-16.35,1.15c-13.61,1.7-26.4,6.18-38.73,12a13.57,13.57,0,0,0-1.52,1.07,67.88,67.88,0,0,1,17.49,4.12c4.56,1.67,3.28,1.89,6.7-1.55a31.68,31.68,0,0,1,15.08-8.59,21.81,21.81,0,0,1,13,.48,58.64,58.64,0,0,1,14.24,7.46,24.71,24.71,0,0,1,8.52,10.25,32.5,32.5,0,0,1,1,3.6c-1.91-.57-3.21-.84-4.41-1.32-8.35-3.32-16.67-6.7-25-10-4.21-1.68-8.24-1-12.09,1.19a32.85,32.85,0,0,0-8.47,6.69c-2.27,2.57-5.11,3-8.28,2-.74-.23-1.47-.54-2.2-.8a62.37,62.37,0,0,0-22.94-4.06,42.19,42.19,0,0,0-21.89,6.39c-9.48,6-19.36,11.39-29.25,16.71C154.91,342.4,148.82,344.86,143,347.53Zm98.68-156.76c.32,1.4.5,2.34.75,3.27a121.7,121.7,0,0,1,3.31,15.75c1.14,8.81,2.28,17.63,4.56,26.26,3.78,14.24,11,26.35,22.73,35.33,12.34,9.43,26.52,14.81,41.71,17.62a24.76,24.76,0,0,0,4.24,0,17.32,17.32,0,0,0-.58-1.79q-5.94-12.44-11.89-24.85a85.7,85.7,0,0,0-9.19-14.62c-5.78-7.63-11.41-15.38-17.14-23.06-3.44-4.62-7-9.18-10.43-13.78-.45-.59-.81-1.23-1.17-1.78.86-1.31,1.76-.64,2.45-.29a92.84,92.84,0,0,1,9.05,4.78c19,12.28,33.26,28.55,41.94,49.56.28.68.66,1.32,1.1,2.19,1.51-3.07,2.75-5.92,4.29-8.6a6.21,6.21,0,0,0,.85-4.47c-.87-4.4-1.44-8.9-2.73-13.18-3.9-12.81-11.27-23.5-20.69-32.9a44.35,44.35,0,0,0-21-11.59c-7.56-1.91-15.3-2-23-2.23C254.59,192.22,248.34,192.35,241.71,190.77ZM210.65,420c-.85.05-1.58,0-2.29.15q-14,2.28-28,4.6c-2.59.44-5.34.57-7.72,1.54-6.49,2.67-12.89,5.6-19.22,8.62-20.56,9.81-40.27,21.16-59.8,32.85C84.8,473,76,478.18,66.34,481.89c-2.55,1-5.13,1.86-7.93,2.88a15.68,15.68,0,0,0,10.06,6.68,35.68,35.68,0,0,0,8.45.43,77.1,77.1,0,0,0,16.67-3.07c13.06-3.77,25.62-8.89,38.15-14.1,17.82-7.41,34.23-17,48.66-29.95a290.42,290.42,0,0,1,29.87-24.08C210.41,420.59,210.45,420.37,210.65,420ZM532,497.12c-.65,1.06-1.15,2-1.77,2.87a13.71,13.71,0,0,1-10.38,5.85c-1.93.17-3.85.7-4.83,2.28a14.11,14.11,0,0,1-8.13,6.55,11.23,11.23,0,0,1-4.37,7.26c-3.47,2.51-7.38,2.77-11.38,2.06a10.36,10.36,0,0,1-14.18,5.07,10,10,0,0,0-1.91-.52c-.65.79-1.17,1.5-1.76,2.14-2.36,2.53-4.92,4.79-8.44,5.52-11.18,2.32-22.26,3.25-32.89-2.31-.15-.07-.38,0-.77,0-5,4-10.12,8-17.36,4.59-.61.86-1.17,1.78-1.85,2.59-2.77,3.27-5.45,6.64-8.42,9.73-2.62,2.72-5.87,4.21-9.86,3.11-.86,1.28-2.09,2.24-2.44,4,1.2-.14,2.17-.2,3.12-.37,4.81-.85,9.61-1.73,14.41-2.61a608.72,608.72,0,0,0,89.71-23.56c15.05-5.23,29.92-10.92,44.12-18.18,11.56-5.9,22.28-12.91,31.11-22.64,11.67-12.85,14.27-28,11.79-44.51-1.06-7-5.28-12.52-10.14-17.48-9.58-9.79-20.76-17.47-32.49-24.4-.18-.11-.47,0-.88-.07.3.41.44.66.63.87a212.3,212.3,0,0,1,23.08,31.71,84.48,84.48,0,0,1,11.1,27c1.51,7.26.42,14.11-5.15,19.52-4.64,4.51-10,7.39-16.75,6.28-5.34,8.6-10.27,10.59-20.1,8.27C533.85,497.53,532.91,497.33,532,497.12ZM343.59,285l.17.69a20.74,20.74,0,0,0,2.23,0c5.44-.58,10.91-.94,16.29-1.85,19.66-3.34,37.8-10.52,53.9-22.38a115.18,115.18,0,0,0,11.59-10.29c2.42-2.35,4.45-5.09,6.69-7.68a3.16,3.16,0,0,0-.68-.42c-5.35-1.84-10.77-3.51-16-5.52-13.48-5.13-27.13-6.34-41.09-2.28-10.65,3.1-20.5,7.72-28.17,16a79.8,79.8,0,0,0-14.55,22.89c-.37.86-.6,1.79-1.11,3.35,1.33-1,2.07-1.54,2.83-2.07,4.68-3.2,9.2-6.65,14.08-9.5a65.73,65.73,0,0,1,11-4.68c4.3-1.56,8.75-2.72,13.07-4.23a102.65,102.65,0,0,1,18.59-5.13c1.75-.27,3.54-.3,5.9-.49a9.56,9.56,0,0,1-4.16,3.59c-6,3.21-12.06,6.42-18.17,9.48a71.5,71.5,0,0,0-12,7.21c-2.69,2.09-5.62,3.89-8.48,5.75C351.52,280,347.54,282.47,343.59,285ZM34.11,470.17h.73c1-1.16,2-2.35,3.12-3.47s2.32-2.38,3.56-3.49A154.45,154.45,0,0,1,101.83,430c21.51-6.21,43.6-9.81,65.65-13.51,14.05-2.36,28.14-4.52,42.22-6.76,9.16-1.46,18.33-2.87,27.48-4.38,15.79-2.61,31.6-5.13,47.36-8,12.38-2.24,24.69-4.9,37-7.4a7,7,0,0,0,1.47-.81c-3.42-1.73-6.44-3.31-9.49-4.8a8.9,8.9,0,0,0-8.2,0c-3,1.47-5.88,3.09-8.88,4.5a73.51,73.51,0,0,1-8.35,3.53c-9.84,3.23-19.84,2.76-29.85.92a99.94,99.94,0,0,1-20.18-6,3.48,3.48,0,0,0-3.53,0,145.81,145.81,0,0,1-27.22,12.17,504.41,504.41,0,0,1-58.64,15.23c-19.22,3.92-38.47,7.68-57.65,11.76A143.06,143.06,0,0,0,57.35,438c-10.28,5.08-17.71,13-23.57,22.59a3.92,3.92,0,0,0-.79,2.14C33.24,465.24,33.72,467.7,34.11,470.17Zm7.7,16.21c.68.92,1.09,1.56,1.59,2.12A89.5,89.5,0,0,0,62,505a194.17,194.17,0,0,0,29.6,15.39c29.82,12.72,60.79,21.88,92.3,29.22a594.56,594.56,0,0,0,71.26,12.19,30.34,30.34,0,0,0,3.16,0c-1.55-1.66-3.28-3-4.36-4.82s-1.61-4.05-2.42-6.23a29.68,29.68,0,0,1-15.29,1.19c-5.72-1.16-10.92-3.18-13.27-9.33-.83.22-1.57.45-2.32.61-4.29.89-8.55,2-12.88,2.58a23.75,23.75,0,0,1-14-2.33,33.53,33.53,0,0,0-4.31-1.75,8.37,8.37,0,0,1-5.35-4.64c-.24-.52-.5-1-.8-1.65a19.19,19.19,0,0,0-2.34.42,19.26,19.26,0,0,1-11-.1c-2.72-.78-5.44-1.61-8.07-2.62-6.16-2.36-11.4-5.69-12.58-13.11-1.67.4-3.16.8-4.66,1.13-10.37,2.26-20.71,2.66-30.95-.69-4.88-1.6-9.15-4-10.36-9.44-3,0-5.88.09-8.71,0-7.2-.27-13.47-2.36-17.06-9.23-2-.09-3.85,0-5.68-.29-9.78-1.41-18.42-4.55-22.15-15.09ZM473.12,371.12c.66.73.87,1,1.14,1.26,5.18,4.61,10.15,9.51,15.61,13.77,13,10.18,23.94,22.44,34.58,35a153.14,153.14,0,0,1,19.89,28.94c3.57,6.93,6.54,14.19,9.53,21.4,1.17,2.83,1.68,5.94,2.58,9.24a53.5,53.5,0,0,0,5.52-1.94,6.55,6.55,0,0,0,4-6.58,17.48,17.48,0,0,0-.38-3.77A109,109,0,0,0,562,456.68c-2.19-5.33-4.76-10.5-7.31-15.67a119,119,0,0,0-23.61-32.62c-7.54-7.38-15.31-14.53-23-21.75a8,8,0,0,0-2.24-1.34Q494,380.13,482.18,375C479.35,373.76,476.51,372.56,473.12,371.12ZM223.28,422.91c-1.44,1-2.6,1.75-3.65,2.6q-5.58,4.53-11.09,9.12c-9.74,8.16-19.35,16.47-29.21,24.47a148.82,148.82,0,0,1-24.5,16.56c-18.46,9.69-37.62,17.71-57.85,23-2.24.59-4.49,1.15-7.33,1.88,1.12.35,1.63.57,2.16.67a18.27,18.27,0,0,0,2.32.34A60.13,60.13,0,0,0,112.45,500a261,261,0,0,0,55.77-20.18A159.23,159.23,0,0,0,211.5,449.1c2.33-2.34,5-4.38,7.54-6.49,3.08-2.54,6.21-5,9.56-7.69C226.87,431,225.18,427.22,223.28,422.91Zm229.25-47.54c4.23,3.86,8.49,7.32,12.25,11.26,13.68,14.37,27.32,28.79,40,44.07A150.86,150.86,0,0,1,524,459.42c4.49,9,7.94,18.27,9,28.32a7.22,7.22,0,0,0,.4,1.25c2.1-.29,4.11-.58,6.13-.85,2.55-.35,3.76-2.05,4-4.38a22.84,22.84,0,0,0-.17-5.54,47.63,47.63,0,0,0-5.83-16.8q-3.5-6.09-7.19-12.09c-4.2-6.83-8.52-13.6-13.84-19.63a667,667,0,0,0-47.31-48.85,68.74,68.74,0,0,1-5.19-5.94c-.92-1.08-1.78-2.22-2.61-3.27Zm-190.79,171c1.36,4.8,3.45,6,8.16,4.65.28-.08.56-.18.83-.27a34.54,34.54,0,0,0,15.46-10.69c11-13.3,19.88-28,28.33-43a166.8,166.8,0,0,0,13.42-30.21c2.8-8.62,5.87-17.14,10.41-25.27-1.42-1.62-2.88-3.28-4.42-5.05-1.92,3.69-3.62,7.19-5.52,10.57a313.71,313.71,0,0,0-15.07,29.79,236.9,236.9,0,0,1-14.94,29.85C289,522.26,277.74,536.18,262.13,546A2,2,0,0,0,261.74,546.42Zm108,14.7a39.8,39.8,0,0,0,0-5.28c-.8-5.5-1.76-11-2.63-16.48-2-12.67-6.53-24.36-14.55-34.43-5.64-7.08-11.84-13.72-18-20.74l-9.84,20c10.19,6.38,18.56,14.28,24.24,24.72a83.29,83.29,0,0,1,10.36,33.23ZM326.37,424.23c-.24.18-.46.27-.54.42-.39.78-.77,1.58-1.1,2.39-3.89,9.44-9.26,17.91-17.14,24.5a24.26,24.26,0,0,0-7.14,10.26c-3.16,8-6.92,15.74-10.75,23.42-12.23,24.52-31.46,41.72-56.13,53.13-1,.45-1.93.87-3.19,1.44.81.44,1.28.75,1.78,1,5.2,2.25,10.47,2,15.75.35a48,48,0,0,0,14.72-7.72c13.78-10.52,24-24,31.88-39.27,4-7.73,7.43-15.71,11.16-23.56,6.68-14,12.91-28.26,21.51-41.27a2.48,2.48,0,0,0,.19-3C327,425.67,326.71,425,326.37,424.23ZM112.52,509.86c8.16,3.9,16.63,4.51,25.26,3a72.12,72.12,0,0,0,17.76-5.84,287.82,287.82,0,0,0,50.23-29.42c5.6-4.08,11.36-7.94,17-11.95,3.89-2.76,7.72-5.61,11.78-8.56-.85-3.91-1.72-7.86-2.69-12.31a215.24,215.24,0,0,1-54.29,42.52C157.17,498.52,135.19,505.12,112.52,509.86Zm239.09-71.69c10.6-5.35,21.87-6.63,33.13-7.6a93.83,93.83,0,0,1,34.16,3c.25-3.51.49-6.86.73-10.22-4.79-1.87-9.23-3.64-13.69-5.33a30.88,30.88,0,0,0-11.73-2.27c-5.76.16-11.52.27-17.26.74-11.82,1-22.9,4.7-33.61,9.63-.34.16-.65.39-1.32.81Zm-214-5.56-.13-.32c-.56.07-1.14.11-1.7.22-4.49.9-9,1.83-13.48,2.72A179.84,179.84,0,0,0,68.57,454.6a156.9,156.9,0,0,0-23.79,16.53c-1.68,1.41-3.15,3.08-5.23,5.14,2.17.53,3.67,1.26,5.11,1.16a31.41,31.41,0,0,0,8-1.37c12.31-4.2,24.22-9.27,35.14-16.51a249.7,249.7,0,0,1,34.5-19.24c4.62-2.11,9.12-4.47,13.66-6.73C136.55,433.3,137.08,432.94,137.63,432.61Zm206.72,16.86c-2.07,8.65-4.13,17.24-6.1,25.48l13.3,10.12a46.67,46.67,0,0,1,9.74,10.48c4.89,6.95,7.9,14.81,10.91,22.63a100.32,100.32,0,0,1,6.72,29.89c.23,3.85-.07,7.74-.13,11.79l2.22-.39c-.53-4.64-1.15-9.08-1.53-13.54-.69-8-1.08-16-1.87-23.95-.91-9.24-2.39-18.42-5.48-27.22A128.11,128.11,0,0,0,344.35,449.47ZM210.84,535.21c.92-.13,1.3-.17,1.67-.24.57-.12,1.13-.28,1.7-.41,12.11-2.8,22.81-8.67,32.81-15.75,13.43-9.51,24.49-21.16,31.24-36.51,2.51-5.7,5.1-11.42,9-16.38.09-.12,0-.34.05-.52-.18,0-.4-.16-.53-.1-5.9,2.59-11.8,5.17-17.67,7.82a3.69,3.69,0,0,0-1.66,1.51c-4.27,8.28-9.69,15.81-14.85,23.52a68.58,68.58,0,0,1-11,13.31c-5,4.5-10.14,8.88-15.47,13C221.4,528.14,216.3,531.41,210.84,535.21Zm207.67-3.9a22.32,22.32,0,0,0,9.21-7.84,130.16,130.16,0,0,0,8.45-14c6.58-13.31,10.58-27.54,13.5-42,3-14.83,5.19-29.81,7.78-44.72a2.93,2.93,0,0,0-.95-2.87c-2.25-2.17-4.43-4.41-6.66-6.6a16.79,16.79,0,0,0-1.69-1.27,24.35,24.35,0,0,0,0,3.22c1,6.55.5,13.09-.27,19.59-2.33,19.74-6.26,39.13-13.07,57.87A361.64,361.64,0,0,1,418.51,531.31Zm-15,2.73.37.24c.38-.57.77-1.12,1.13-1.7,10.49-16.89,17.82-35.15,23.66-54.08a232.26,232.26,0,0,0,9.56-48.2c.74-8.27,1.46-16.54,2.27-24.81a3.24,3.24,0,0,0-1.2-2.79c-2.58-2.67-5.12-5.38-7.7-8.06-.42-.43-.95-.77-1.71-1.39.25,3.94.51,7.44.69,10.95.92,17.42.56,34.81-2.8,52a359.83,359.83,0,0,1-19.57,66.22Q405.88,528.21,403.53,534ZM337.85,420.47c.47-.25.82-.4,1.13-.61,10.26-6.9,21.75-10.51,33.85-12.22a105.06,105.06,0,0,1,28.34.12c6.32.83,12.53,2.11,17.84,6,.11.08.36,0,.78-.06,0-4.3,0-8.62-.2-12.8-3.17-.76-5.94-1.34-8.66-2.11a54.12,54.12,0,0,0-19.42-2c-6.7.58-13.39,1.49-20,2.69A101,101,0,0,0,336.15,413c-.81.5-1.59,1.06-2.62,1.75ZM195.71,528.53l.54.48,6.51-3.26c7.93-4,14.71-9.58,21.49-15.18A161.87,161.87,0,0,0,248,487.12c2-2.46,3.82-5,5.73-7.55a4.26,4.26,0,0,0-2.49.29c-6.51,2.9-13.11,5.61-19.48,8.8a83.35,83.35,0,0,0-26.93,20.86,42.14,42.14,0,0,0-8.25,15.37C196.21,526.08,196,527.32,195.71,528.53Zm197.6-5.09.65.1c6.59-27.74,6.68-55.78,3.92-84.24a90.76,90.76,0,0,0-18.4,1.13,48.7,48.7,0,0,1,3.08,6.59c2.39,7.94,5.09,15.84,6.72,23.94,2.94,14.59,3.89,29.43,4,44.3C393.34,518,393.31,520.72,393.31,523.44Zm39.22-144.8c2.66,2.75,4.81,5.11,7.1,7.32,6.89,6.65,13.86,13.22,20.76,19.87C472,417,482.84,428.7,492.09,441.88c11.3,16.1,20.45,33.26,26.45,52a4.6,4.6,0,0,0,.76,1.09c1.52-2.24,1.71-2.77,1.65-5.34a34.44,34.44,0,0,0-2.56-12.28c-5.47-13.36-12.14-26.09-21.61-37.07Q477.64,418.12,458,396.4c-5.31-5.88-10.8-11.56-14.56-18.62ZM183.66,525.36c.34-1.26.64-2.28.91-3.3a37.91,37.91,0,0,1,4.9-11.54c7.46-11.15,16.27-21,28-27.9,5.55-3.25,11.36-6.05,17.06-9.06l2.23-1.18c-.41-3-.78-5.7-1.22-8.84-1,.88-1.53,1.38-2.08,1.91-5.21,5-10.11,10.36-15.68,14.91-18.6,15.16-38,29.05-61,37-.3.1-.53.42-1,.85C164,525.51,173.61,525.92,183.66,525.36Zm-113.8-107,.17.42c.63-.13,1.27-.23,1.9-.39,4.06-1,8.08-2.28,12.19-3.12a432.65,432.65,0,0,0,44.59-11.07c12.92-4.08,25.41-9,36.78-16.44,2.12-1.39,4.45-2.44,6.68-3.67,2.56-1.41,5.12-2.82,7.66-4.27a10,10,0,0,0,1.41-1.19l-14.93-3c-5.11,5.59-11.62,9.55-18.2,13.41-2.19,1.29-4.37,2.59-6.53,3.93a63.47,63.47,0,0,1-15.06,7.12c-9.44,2.85-18.93,5.52-28.43,8.14-8.38,2.31-16.81,4.42-24.68,8.25C72.21,417.07,71,417.74,69.86,418.37Zm434.87,87a9.31,9.31,0,0,0,.53-6.46,36.56,36.56,0,0,0-6.07-13.52c-7-9.62-15.95-17.06-25.56-23.84q-5.13-3.61-10.27-7.21c-.1-.08-.34,0-.6.06-.57,2.63-1.24,5.28-1.71,8s-1.53,5.38-1.35,8.17c9.55,2.6,13.16,3.47,22,10.66,2.28,1.84,4.58,3.65,6.85,5.5a65.1,65.1,0,0,1,15.32,17.54A13.12,13.12,0,0,0,504.73,505.41ZM242.49,414.86l-10.71,1.78c8.8,16.48,13.38,33.79,12.9,52.33a2,2,0,0,0,.65.11c7.54-2,8.39-2.92,8.7-10.74a96.86,96.86,0,0,0-4.44-31.76,23.69,23.69,0,0,0-2.78-5.44C245.55,419.09,244.08,417.16,242.49,414.86ZM76,404.34l.12.3c.43-.13.87-.23,1.29-.4a242.62,242.62,0,0,1,27.83-9,226,226,0,0,0,45.08-17.07c2.78-1.42,5.69-2.58,8.53-3.87.63-.29,1.24-.62,2-1l-9.77-5.54c-3.7,2-7.12,4.11-10.76,5.74-8.73,3.91-17.58,7.55-26.34,11.4a349.9,349.9,0,0,0-36.07,18.2C77.25,403.47,76.63,403.92,76,404.34Zm94.44-5.67c6.61-.08,47-11.61,56.22-16.08-.75-.45-1.37-.88-2-1.22-2.69-1.38-5.47-2.63-8.09-4.14a15.78,15.78,0,0,0-11.33-1.6c-4.41.86-8.81,1.75-13.24,2.54a2.41,2.41,0,0,0-2,1.39,23.58,23.58,0,0,1-6,7.14c-4.48,3.9-8.36,8.49-13.46,11.69C170.43,398.42,170.44,398.57,170.43,398.67ZM314.19,521c14.73,10.58,24.86,24,27.51,42.48l7.77-.61c-.38-1.34-.59-2.4-1-3.39-2.62-6.93-5.2-13.89-8-20.77a72.1,72.1,0,0,0-7.48-13.57c-3.61-5.33-6.94-10.85-10.41-16.28-.08-.13-.31-.18-.58-.31Zm-51.7-58.3a42,42,0,0,1,4.6-1.59c2.16-.49,2.89-1.82,3.17-3.9.84-6.4,1-12.82,1.27-19.26.37-9.54-2.53-18.22-6.12-27.07-3,.52-6.06,1-9.11,1.6a16.51,16.51,0,0,0-2,.63C262.35,428.69,265.77,444.89,262.49,462.73ZM310,527.67l-9.45,12.44c3.3,2.58,6.41,5,9.57,7.47a24.59,24.59,0,0,1,6.41,7.15c1.75,3,3.34,6.14,5,9.2h10C329.36,556,317.7,536.41,310,527.67Zm66.49-138.58.11.35c.56,0,1.13,0,1.69,0,6.81-.46,13.62-1.09,20.44-1.36,6.65-.25,13.28.09,19.43,3.16.23.11.55,0,.89,0,.41-4.71.82-9.35,1.24-14.25-2.09-.43-4.18-.83-6.26-1.28a17.62,17.62,0,0,0-12.15,1.71c-7.67,3.82-15.57,7.21-23.38,10.77C377.87,388.51,377.19,388.79,376.52,389.09Zm78.88,99.6c16.64,3.37,26.76,14.47,35.48,27.73a25.22,25.22,0,0,0,2.7-1.15c2.37-1.29,2.62-2.34,1.26-4.74a7.12,7.12,0,0,0-.63-1c-4.81-6.29-9.73-12.48-16.08-17.35q-4.87-3.75-9.82-7.4c-3.29-2.43-6.63-4.78-10.2-7.35C457.2,481.24,456.34,484.8,455.4,488.69ZM272.19,562.86C278.1,564,304.7,564.72,309,564c-4.28-6.17-7.74-12.83-13.64-17.42-3.53,3.28-6.75,6.55-10.27,9.48A41.33,41.33,0,0,1,272.19,562.86Zm84.35-118.22c2.06,2.46,3.58,4.23,5,6s2.92,3.67,4.29,5.57,2.56,3.7,3.7,5.63,2.26,4.1,3.33,6.19,2.08,4.2,3.11,6.3l2.91,5.89.61-.25c-2.07-12.86-4.14-25.73-6.25-38.9Zm-67,5.81c-.24-5.11-.44-10-.71-14.83-.14-2.73-.4-5.45-.58-8.17-.49-7.22-4.53-13.15-7-19.77L274.88,409c7.19,14.43,9.08,29.53,7,45.71Zm177.94,72.92c-3-2.78-6.7-4.34-10.18-6.26s-6.83-4-10.15-5.88l-9.18,15.94C448.48,529.12,460.65,528.35,467.44,523.37ZM300.37,442.55c1.76-1.93,3.47-3.91,5.3-5.78a7,7,0,0,0,1.9-7.21,11.42,11.42,0,0,1-.3-2.61,33.53,33.53,0,0,0-3.84-14c-1.44-3-3.23-5.77-3.39-9.34l-8.18,1.74C298.82,416.86,300.26,429.37,300.37,442.55Zm149.37,62.19c1.07.32,2,.57,2.92.86,9.72,3.07,19.14,6.71,26.24,14.51.92,1,1.63.78,2.44-.25a29.67,29.67,0,0,0-5.1-8.08c-6-7.35-14.25-11.66-22.4-16-.14-.07-.37,0-.81,0Q451.44,500.12,449.74,504.74Zm-44.36-65.07c1.44,6.19,3.14,12.09,4.13,18.1s1.26,12,1.85,18l.46,0c1.91-10.81,3.82-21.62,5.76-32.56C413.42,442,409.84,439.91,405.38,439.67Zm-88.73-23.49c4-8.81,10.08-15.76,18.08-22l-25.67,7.58C313.28,405.78,315,410.84,316.65,416.18Zm148,29.6c7.09.55,12.8,4.54,19.18,8.19-3.38-6.79-15.8-22.57-18.58-23.82C465.06,435.19,464.87,440.24,464.65,445.78ZM342.46,399.45l12.31-5C349.67,394,345.66,395.23,342.46,399.45Z"/><path class="cls-3" d="M137.63,350c5.79-2.67,17.28-7.57,23-10.66,9.89-5.32,19.77-10.72,29.25-16.71a42.19,42.19,0,0,1,21.89-6.39,62.37,62.37,0,0,1,22.94,4.06c.73.26,1.46.57,2.2.8,3.17,1,6,.53,8.28-2a32.85,32.85,0,0,1,8.47-6.69c3.85-2.2,7.88-2.87,12.09-1.19,8.34,3.32,16.66,6.7,25,10,1.2.48,2.5.75,4.41,1.32a32.5,32.5,0,0,0-1-3.6,24.71,24.71,0,0,0-8.52-10.25,58.64,58.64,0,0,0-14.24-7.46,21.81,21.81,0,0,0-13-.48,31.68,31.68,0,0,0-15.08,8.59c-3.42,3.44-2.14,3.22-6.7,1.55a67.88,67.88,0,0,0-17.49-4.12,13.57,13.57,0,0,1,1.52-1.07c12.33-5.87,25.12-10.35,38.73-12a101,101,0,0,1,16.35-1.15,118.36,118.36,0,0,1,17.1,2.36c6.91,1.29,13.79,2.75,20.83,3.13,5.33.29,10.65.09,16,1.1,8.41,1.58,17,.65,25.43-.26,5.13-.56,10.21-1.65,15.33-2.38a10.28,10.28,0,0,1,3.74.25,104.4,104.4,0,0,1,20.88,7.63c7.81,3.82,15.44,8,23.14,12a16.5,16.5,0,0,1,1.68,1.24c-1.71.34-3,.64-4.29.86a35,35,0,0,0-14.71,6.22,23.64,23.64,0,0,0-3.86,3.56,9.71,9.71,0,0,0-1.72,3c-.4,1.09-.64,2.37.44,3.26s2.22.24,3.23-.37c2.33-1.43,4.64-2.89,7-4.32,7.32-4.51,15.21-5.16,23.45-3.49,2,.41,4.07.61,6,1.13a16.08,16.08,0,0,1,4,1.68,276.63,276.63,0,0,0,29.89,15.54c2.21,1,6.5,4.28,9.09,5.33.34,5.72-1.07,3.89-1.32,4-5.13,3-11.93.29-17.13,3.2-11.65,6.51-23.95,9.28-37.24,6.25-2.94-.67-5.93-1.19-8.91-1.71a27.28,27.28,0,0,0-17,2.83c-7.1,3.49-14.23,6.92-21.51,10A76.16,76.16,0,0,1,348,380.85a36.72,36.72,0,0,1-20.26-4.76c-2.53-1.47-5.19-2.72-7.83-4a23.07,23.07,0,0,0-20.88-.06c-2.55,1.21-5.14,2.41-7.56,3.86-8.32,5-17.32,5.64-26.65,4.48-11.6-1.44-22.24-5.86-32.72-10.72-3-1.39-6-2.83-8.9-4.47a28.69,28.69,0,0,0-21-3.05c-3.44.74-6.87,1.59-10.34,2.07-11.46,1.58-22.18-1-32.17-6.51C154.05,354.53,143.18,353.37,137.63,350Zm227.18,1.15c-3-2.16-5.58-4.73-8.69-6.16a36.55,36.55,0,0,0-29.55-1,17.65,17.65,0,0,0-7.4,5.1,9.77,9.77,0,0,0-1.77,3c-.58,1.71.48,2.93,2.29,2.67a26.36,26.36,0,0,0,4.53-1.14,50.6,50.6,0,0,1,19-2.32,28.13,28.13,0,0,1,12.05,3.24c1.8,1,3.64,1.88,5.41,2.91a8.09,8.09,0,0,0,7.5.46c7.14-2.79,14.64-3,22.19-2.8a8.83,8.83,0,0,0,1.45-.25,4.6,4.6,0,0,0-2.8-3.05C381,348.17,373,346.78,364.81,351.12Zm-157.21-11c-2,.21-4.09.3-6.1.66a53.76,53.76,0,0,0-24.67,11.42c-.78.64-1.48,1.33-1.15,2.47a2.38,2.38,0,0,0,2.44,1.76,15.17,15.17,0,0,0,4.53-.88c2.74-1,5.36-2.34,8.08-3.41,6.65-2.63,13.51-3.88,20.62-2.55,3.34.62,6.58,1.77,9.91,2.52a15.89,15.89,0,0,0,4.9.4c2.82-.29,3.76-2.53,2.07-4.83a9.9,9.9,0,0,0-2.81-2.5A34.7,34.7,0,0,0,207.6,340.12Z"/><path class="cls-4" d="M241.71,190.77c6.63,1.58,12.88,1.45,19.12,1.65,7.71.25,15.45.32,23,2.23a44.35,44.35,0,0,1,21,11.59c9.42,9.4,16.79,20.09,20.69,32.9,1.29,4.28,1.86,8.78,2.73,13.18a6.21,6.21,0,0,1-.85,4.47c-1.54,2.68-2.78,5.53-4.29,8.6-.44-.87-.82-1.51-1.1-2.19-8.68-21-23-37.28-41.94-49.56a92.84,92.84,0,0,0-9.05-4.78c-.69-.35-1.59-1-2.45.29.36.55.72,1.19,1.17,1.78,3.47,4.6,7,9.16,10.43,13.78,5.73,7.68,11.36,15.43,17.14,23.06a85.7,85.7,0,0,1,9.19,14.62q6,12.42,11.89,24.85A17.32,17.32,0,0,1,319,289a24.76,24.76,0,0,1-4.24,0c-15.19-2.81-29.37-8.19-41.71-17.62-11.77-9-18.95-21.09-22.73-35.33-2.28-8.63-3.42-17.45-4.56-26.26A121.7,121.7,0,0,0,242.46,194C242.21,193.11,242,192.17,241.71,190.77Z"/><path class="cls-5" d="M210.65,420c-.2.38-.24.6-.38.69a290.42,290.42,0,0,0-29.87,24.08C166,457.7,149.56,467.3,131.74,474.71c-12.53,5.21-25.09,10.33-38.15,14.1a77.1,77.1,0,0,1-16.67,3.07,35.68,35.68,0,0,1-8.45-.43,15.68,15.68,0,0,1-10.06-6.68c2.8-1,5.38-1.9,7.93-2.88C76,478.18,84.8,473,93.6,467.75c19.53-11.69,39.24-23,59.8-32.85,6.33-3,12.73-5.95,19.22-8.62,2.38-1,5.13-1.1,7.72-1.54q14-2.33,28-4.6C209.07,420,209.8,420,210.65,420Z"/><path class="cls-6" d="M532,497.12c.95.21,1.89.41,2.82.63,9.83,2.32,14.76.33,20.1-8.27,6.7,1.11,12.11-1.77,16.75-6.28,5.57-5.41,6.66-12.26,5.15-19.52a84.48,84.48,0,0,0-11.1-27A212.3,212.3,0,0,0,542.6,405c-.19-.21-.33-.46-.63-.87.41,0,.7,0,.88.07,11.73,6.93,22.91,14.61,32.49,24.4,4.86,5,9.08,10.45,10.14,17.48,2.48,16.47-.12,31.66-11.79,44.51-8.83,9.73-19.55,16.74-31.11,22.64-14.2,7.26-29.07,12.95-44.12,18.18A608.72,608.72,0,0,1,408.75,555c-4.8.88-9.6,1.76-14.41,2.61-.95.17-1.92.23-3.12.37.35-1.8,1.58-2.76,2.44-4,4,1.1,7.24-.39,9.86-3.11,3-3.09,5.65-6.46,8.42-9.73.68-.81,1.24-1.73,1.85-2.59,7.24,3.39,12.4-.61,17.36-4.59.39,0,.62-.07.77,0,10.63,5.56,21.71,4.63,32.89,2.31,3.52-.73,6.08-3,8.44-5.52.59-.64,1.11-1.35,1.76-2.14a10,10,0,0,1,1.91.52A10.36,10.36,0,0,0,491.1,524c4,.71,7.91.45,11.38-2.06a11.23,11.23,0,0,0,4.37-7.26,14.11,14.11,0,0,0,8.13-6.55c1-1.58,2.9-2.11,4.83-2.28A13.71,13.71,0,0,0,530.19,500C530.81,499.13,531.31,498.18,532,497.12Z"/><path class="cls-7" d="M343.59,285c4-2.51,7.93-5,11.86-7.54,2.86-1.86,5.79-3.66,8.48-5.75a71.5,71.5,0,0,1,12-7.21c6.11-3.06,12.14-6.27,18.17-9.48a9.56,9.56,0,0,0,4.16-3.59c-2.36.19-4.15.22-5.9.49A102.65,102.65,0,0,0,373.8,257c-4.32,1.51-8.77,2.67-13.07,4.23a65.73,65.73,0,0,0-11,4.68c-4.88,2.85-9.4,6.3-14.08,9.5-.76.53-1.5,1.1-2.83,2.07.51-1.56.74-2.49,1.11-3.35a79.8,79.8,0,0,1,14.55-22.89c7.67-8.31,17.52-12.93,28.17-16,14-4.06,27.61-2.85,41.09,2.28,5.28,2,10.7,3.68,16,5.52a3.16,3.16,0,0,1,.68.42c-2.24,2.59-4.27,5.33-6.69,7.68a115.18,115.18,0,0,1-11.59,10.29c-16.1,11.86-34.24,19-53.9,22.38-5.38.91-10.85,1.27-16.29,1.85a20.74,20.74,0,0,1-2.23,0Z"/><path class="cls-8" d="M34.11,470.17c-.39-2.47-.87-4.93-1.12-7.42a3.92,3.92,0,0,1,.79-2.14C39.64,451,47.07,443.1,57.35,438A143.06,143.06,0,0,1,91,426.43c19.18-4.08,38.43-7.84,57.65-11.76a504.41,504.41,0,0,0,58.64-15.23,145.81,145.81,0,0,0,27.22-12.17,3.48,3.48,0,0,1,3.53,0,99.94,99.94,0,0,0,20.18,6c10,1.84,20,2.31,29.85-.92a73.51,73.51,0,0,0,8.35-3.53c3-1.41,5.91-3,8.88-4.5a8.9,8.9,0,0,1,8.2,0c3,1.49,6.07,3.07,9.49,4.8a7,7,0,0,1-1.47.81c-12.33,2.5-24.64,5.16-37,7.4-15.76,2.85-31.57,5.37-47.36,8-9.15,1.51-18.32,2.92-27.48,4.38-14.08,2.24-28.17,4.4-42.22,6.76-22,3.7-44.14,7.3-65.65,13.51a154.45,154.45,0,0,0-60.31,33.23c-1.24,1.11-2.41,2.29-3.56,3.49s-2.08,2.31-3.12,3.47Z"/><path class="cls-9" d="M41.81,486.38h8c3.73,10.54,12.37,13.68,22.15,15.09,1.83.26,3.7.2,5.68.29,3.59,6.87,9.86,9,17.06,9.23,2.83.1,5.66,0,8.71,0,1.21,5.48,5.48,7.84,10.36,9.44,10.24,3.35,20.58,2.95,31,.69,1.5-.33,3-.73,4.66-1.13,1.18,7.42,6.42,10.75,12.58,13.11,2.63,1,5.35,1.84,8.07,2.62a19.26,19.26,0,0,0,11,.1,19.19,19.19,0,0,1,2.34-.42c.3.62.56,1.13.8,1.65a8.37,8.37,0,0,0,5.35,4.64,33.53,33.53,0,0,1,4.31,1.75,23.75,23.75,0,0,0,14,2.33c4.33-.58,8.59-1.69,12.88-2.58.75-.16,1.49-.39,2.32-.61,2.35,6.15,7.55,8.17,13.27,9.33a29.68,29.68,0,0,0,15.29-1.19c.81,2.18,1.31,4.4,2.42,6.23s2.81,3.16,4.36,4.82a30.34,30.34,0,0,1-3.16,0,594.56,594.56,0,0,1-71.26-12.19c-31.51-7.34-62.48-16.5-92.3-29.22A194.17,194.17,0,0,1,62,505,89.5,89.5,0,0,1,43.4,488.5C42.9,487.94,42.49,487.3,41.81,486.38Z"/><path class="cls-10" d="M473.12,371.12c3.39,1.44,6.23,2.64,9.06,3.87q11.82,5.13,23.63,10.31a8,8,0,0,1,2.24,1.34c7.69,7.22,15.46,14.37,23,21.75A119,119,0,0,1,554.66,441c2.55,5.17,5.12,10.34,7.31,15.67a109,109,0,0,1,3.65,11.72,17.48,17.48,0,0,1,.38,3.77,6.55,6.55,0,0,1-4,6.58,53.5,53.5,0,0,1-5.52,1.94c-.9-3.3-1.41-6.41-2.58-9.24-3-7.21-6-14.47-9.53-21.4a153.14,153.14,0,0,0-19.89-28.94c-10.64-12.52-21.54-24.78-34.58-35-5.46-4.26-10.43-9.16-15.61-13.77C474,372.14,473.78,371.85,473.12,371.12Z"/><path class="cls-11" d="M223.28,422.91c1.9,4.31,3.59,8.12,5.32,12-3.35,2.69-6.48,5.15-9.56,7.69-2.56,2.11-5.21,4.15-7.54,6.49a159.23,159.23,0,0,1-43.28,30.76A261,261,0,0,1,112.45,500a60.13,60.13,0,0,1-18.32,1.51,18.27,18.27,0,0,1-2.32-.34c-.53-.1-1-.32-2.16-.67,2.84-.73,5.09-1.29,7.33-1.88,20.23-5.29,39.39-13.31,57.85-23a148.82,148.82,0,0,0,24.5-16.56c9.86-8,19.47-16.31,29.21-24.47q5.51-4.61,11.09-9.12C220.68,424.66,221.84,423.93,223.28,422.91Z"/><path class="cls-12" d="M452.53,375.37l8.83-3.73c.83,1.05,1.69,2.19,2.61,3.27a68.74,68.74,0,0,0,5.19,5.94,667,667,0,0,1,47.31,48.85c5.32,6,9.64,12.8,13.84,19.63q3.69,6,7.19,12.09a47.63,47.63,0,0,1,5.83,16.8,22.84,22.84,0,0,1,.17,5.54c-.21,2.33-1.42,4-4,4.38-2,.27-4,.56-6.13.85a7.22,7.22,0,0,1-.4-1.25c-1.11-10.05-4.56-19.36-9-28.32a150.86,150.86,0,0,0-19.17-28.72c-12.68-15.28-26.32-29.7-40-44.07C461,382.69,456.76,379.23,452.53,375.37Z"/><path class="cls-13" d="M261.74,546.42a2,2,0,0,1,.39-.42c15.61-9.82,26.86-23.74,36.27-39.23a236.9,236.9,0,0,0,14.94-29.85,313.71,313.71,0,0,1,15.07-29.79c1.9-3.38,3.6-6.88,5.52-10.57,1.54,1.77,3,3.43,4.42,5.05-4.54,8.13-7.61,16.65-10.41,25.27a166.8,166.8,0,0,1-13.42,30.21c-8.45,15-17.3,29.72-28.33,43a34.54,34.54,0,0,1-15.46,10.69c-.27.09-.55.19-.83.27C265.19,552.4,263.1,551.22,261.74,546.42Z"/><path class="cls-14" d="M369.69,561.12l-10.42,1a83.29,83.29,0,0,0-10.36-33.23c-5.68-10.44-14.05-18.34-24.24-24.72l9.84-20c6.12,7,12.32,13.66,18,20.74,8,10.07,12.53,21.76,14.55,34.43.87,5.5,1.83,11,2.63,16.48A39.8,39.8,0,0,1,369.69,561.12Z"/><path class="cls-15" d="M326.37,424.23c.34.72.61,1.44,1,2.09a2.48,2.48,0,0,1-.19,3c-8.6,13-14.83,27.25-21.51,41.27-3.73,7.85-7.2,15.83-11.16,23.56-7.85,15.31-18.1,28.75-31.88,39.27a48,48,0,0,1-14.72,7.72c-5.28,1.67-10.55,1.9-15.75-.35-.5-.21-1-.52-1.78-1,1.26-.57,2.23-1,3.19-1.44,24.67-11.41,43.9-28.61,56.13-53.13,3.83-7.68,7.59-15.44,10.75-23.42a24.26,24.26,0,0,1,7.14-10.26c7.88-6.59,13.25-15.06,17.14-24.5.33-.81.71-1.61,1.1-2.39C325.91,424.5,326.13,424.41,326.37,424.23Z"/><path class="cls-16" d="M112.52,509.86c22.67-4.74,44.65-11.34,65.06-22.51a215.24,215.24,0,0,0,54.29-42.52c1,4.45,1.84,8.4,2.69,12.31-4.06,2.95-7.89,5.8-11.78,8.56-5.65,4-11.41,7.87-17,11.95a287.82,287.82,0,0,1-50.23,29.42,72.12,72.12,0,0,1-17.76,5.84C129.15,514.37,120.68,513.76,112.52,509.86Z"/><path class="cls-17" d="M351.61,438.17,342,426.94c.67-.42,1-.65,1.32-.81,10.71-4.93,21.79-8.65,33.61-9.63,5.74-.47,11.5-.58,17.26-.74A30.88,30.88,0,0,1,405.94,418c4.46,1.69,8.9,3.46,13.69,5.33-.24,3.36-.48,6.71-.73,10.22a93.83,93.83,0,0,0-34.16-3C373.48,431.54,362.21,432.82,351.61,438.17Z"/><path class="cls-18" d="M137.63,432.61c-.55.33-1.08.69-1.65,1-4.54,2.26-9,4.62-13.66,6.73a249.7,249.7,0,0,0-34.5,19.24C76.9,466.79,65,471.86,52.68,476.06a31.41,31.41,0,0,1-8,1.37c-1.44.1-2.94-.63-5.11-1.16,2.08-2.06,3.55-3.73,5.23-5.14A156.9,156.9,0,0,1,68.57,454.6a179.84,179.84,0,0,1,53.75-19.37c4.5-.89,9-1.82,13.48-2.72.56-.11,1.14-.15,1.7-.22Z"/><path class="cls-19" d="M344.35,449.47a128.11,128.11,0,0,1,27.78,45.29c3.09,8.8,4.57,18,5.48,27.22.79,8,1.18,16,1.87,23.95.38,4.46,1,8.9,1.53,13.54l-2.22.39c.06-4.05.36-7.94.13-11.79a100.32,100.32,0,0,0-6.72-29.89c-3-7.82-6-15.68-10.91-22.63a46.67,46.67,0,0,0-9.74-10.48L338.25,475C340.22,466.71,342.28,458.12,344.35,449.47Z"/><path class="cls-20" d="M210.84,535.21c5.46-3.8,10.56-7.07,15.33-10.76,5.33-4.11,10.46-8.49,15.47-13a68.58,68.58,0,0,0,11-13.31c5.16-7.71,10.58-15.24,14.85-23.52a3.69,3.69,0,0,1,1.66-1.51c5.87-2.65,11.77-5.23,17.67-7.82.13-.06.35.06.53.1,0,.18,0,.4-.05.52-3.91,5-6.5,10.68-9,16.38-6.75,15.35-17.81,27-31.24,36.51-10,7.08-20.7,13-32.81,15.75-.57.13-1.13.29-1.7.41C212.14,535,211.76,535.08,210.84,535.21Z"/><path class="cls-21" d="M418.51,531.31a361.64,361.64,0,0,0,16.31-38.65c6.81-18.74,10.74-38.13,13.07-57.87.77-6.5,1.25-13,.27-19.59a24.35,24.35,0,0,1,0-3.22,16.79,16.79,0,0,1,1.69,1.27c2.23,2.19,4.41,4.43,6.66,6.6a2.93,2.93,0,0,1,.95,2.87c-2.59,14.91-4.79,29.89-7.78,44.72-2.92,14.46-6.92,28.69-13.5,42a130.16,130.16,0,0,1-8.45,14A22.32,22.32,0,0,1,418.51,531.31Z"/><path class="cls-22" d="M403.53,534q2.36-5.82,4.7-11.63a359.83,359.83,0,0,0,19.57-66.22c3.36-17.18,3.72-34.57,2.8-52-.18-3.51-.44-7-.69-10.95.76.62,1.29,1,1.71,1.39,2.58,2.68,5.12,5.39,7.7,8.06a3.24,3.24,0,0,1,1.2,2.79c-.81,8.27-1.53,16.54-2.27,24.81a232.26,232.26,0,0,1-9.56,48.2c-5.84,18.93-13.17,37.19-23.66,54.08-.36.58-.75,1.13-1.13,1.7Z"/><path class="cls-23" d="M337.85,420.47l-4.32-5.72c1-.69,1.81-1.25,2.62-1.75a101,101,0,0,1,35.36-13.51c6.61-1.2,13.3-2.11,20-2.69a54.12,54.12,0,0,1,19.42,2c2.72.77,5.49,1.35,8.66,2.11.19,4.18.23,8.5.2,12.8-.42,0-.67.14-.78.06-5.31-3.9-11.52-5.18-17.84-6a105.06,105.06,0,0,0-28.34-.12c-12.1,1.71-23.59,5.32-33.85,12.22C338.67,420.07,338.32,420.22,337.85,420.47Z"/><path class="cls-24" d="M195.71,528.53c.28-1.21.5-2.45.85-3.64a42.14,42.14,0,0,1,8.25-15.37,83.35,83.35,0,0,1,26.93-20.86c6.37-3.19,13-5.9,19.48-8.8a4.26,4.26,0,0,1,2.49-.29c-1.91,2.52-3.75,5.09-5.73,7.55a161.87,161.87,0,0,1-23.73,23.45c-6.78,5.6-13.56,11.2-21.49,15.18L196.25,529Z"/><path class="cls-25" d="M393.31,523.44c0-2.72,0-5.45,0-8.18-.14-14.87-1.09-29.71-4-44.3-1.63-8.1-4.33-16-6.72-23.94a48.7,48.7,0,0,0-3.08-6.59,90.76,90.76,0,0,1,18.4-1.13c2.76,28.46,2.67,56.5-3.92,84.24Z"/><path class="cls-26" d="M432.53,378.64l10.86-.86c3.76,7.06,9.25,12.74,14.56,18.62q19.64,21.75,38.83,43.92c9.47,11,16.14,23.71,21.61,37.07A34.44,34.44,0,0,1,521,489.67c.06,2.57-.13,3.1-1.65,5.34a4.6,4.6,0,0,1-.76-1.09c-6-18.78-15.15-35.94-26.45-52C482.84,428.7,472,417,460.39,405.83c-6.9-6.65-13.87-13.22-20.76-19.87C437.34,383.75,435.19,381.39,432.53,378.64Z"/><path class="cls-27" d="M183.66,525.36c-10,.56-19.7.15-28-7.14.5-.43.73-.75,1-.85,23-8,42.42-21.85,61-37,5.57-4.55,10.47-9.92,15.68-14.91.55-.53,1.12-1,2.08-1.91.44,3.14.81,5.87,1.22,8.84l-2.23,1.18c-5.7,3-11.51,5.81-17.06,9.06-11.69,6.88-20.5,16.75-28,27.9a37.91,37.91,0,0,0-4.9,11.54C184.3,523.08,184,524.1,183.66,525.36Z"/><path class="cls-28" d="M69.86,418.37c1.18-.63,2.35-1.3,3.55-1.89,7.87-3.83,16.3-5.94,24.68-8.25,9.5-2.62,19-5.29,28.43-8.14A63.47,63.47,0,0,0,141.58,393c2.16-1.34,4.34-2.64,6.53-3.93,6.58-3.86,13.09-7.82,18.2-13.41l14.93,3a10,10,0,0,1-1.41,1.19c-2.54,1.45-5.1,2.86-7.66,4.27-2.23,1.23-4.56,2.28-6.68,3.67-11.37,7.48-23.86,12.36-36.78,16.44a432.65,432.65,0,0,1-44.59,11.07c-4.11.84-8.13,2.08-12.19,3.12-.63.16-1.27.26-1.9.39Z"/><path class="cls-29" d="M504.73,505.41a13.12,13.12,0,0,1-.83-1.13,65.1,65.1,0,0,0-15.32-17.54c-2.27-1.85-4.57-3.66-6.85-5.5-8.87-7.19-12.48-8.06-22-10.66-.18-2.79.87-5.45,1.35-8.17s1.14-5.34,1.71-8c.26,0,.5-.14.6-.06q5.14,3.58,10.27,7.21c9.61,6.78,18.59,14.22,25.56,23.84A36.56,36.56,0,0,1,505.26,499,9.31,9.31,0,0,1,504.73,505.41Z"/><path class="cls-30" d="M242.49,414.86c1.59,2.3,3.06,4.23,4.32,6.28a23.69,23.69,0,0,1,2.78,5.44A96.86,96.86,0,0,1,254,458.34c-.31,7.82-1.16,8.73-8.7,10.74a2,2,0,0,1-.65-.11c.48-18.54-4.1-35.85-12.9-52.33Z"/><path class="cls-31" d="M76,404.34c.64-.42,1.26-.87,1.92-1.25A349.9,349.9,0,0,1,114,384.89c8.76-3.85,17.61-7.49,26.34-11.4,3.64-1.63,7.06-3.75,10.76-5.74l9.77,5.54c-.77.39-1.38.72-2,1-2.84,1.29-5.75,2.45-8.53,3.87a226,226,0,0,1-45.08,17.07,242.62,242.62,0,0,0-27.83,9c-.42.17-.86.27-1.29.4Z"/><path class="cls-32" d="M170.43,398.67c0-.1,0-.25,0-.28,5.1-3.2,9-7.79,13.46-11.69a23.58,23.58,0,0,0,6-7.14,2.41,2.41,0,0,1,2-1.39c4.43-.79,8.83-1.68,13.24-2.54a15.78,15.78,0,0,1,11.33,1.6c2.62,1.51,5.4,2.76,8.09,4.14.67.34,1.29.77,2,1.22C217.46,387.06,177,398.59,170.43,398.67Z"/><path class="cls-33" d="M314.19,521l7.89-12.45c.27.13.5.18.58.31,3.47,5.43,6.8,11,10.41,16.28a72.1,72.1,0,0,1,7.48,13.57c2.76,6.88,5.34,13.84,8,20.77.37,1,.58,2,1,3.39l-7.77.61C339.05,545.07,328.92,531.61,314.19,521Z"/><path class="cls-34" d="M262.49,462.73c3.28-17.84-.14-34-8.17-49.59a16.51,16.51,0,0,1,2-.63c3.05-.56,6.1-1.08,9.11-1.6,3.59,8.85,6.49,17.53,6.12,27.07-.25,6.44-.43,12.86-1.27,19.26-.28,2.08-1,3.41-3.17,3.9A42,42,0,0,0,262.49,462.73Z"/><path class="cls-35" d="M310,527.67c7.67,8.74,19.33,28.35,21.53,36.26h-10c-1.65-3.06-3.24-6.18-5-9.2a24.59,24.59,0,0,0-6.41-7.15c-3.16-2.42-6.27-4.89-9.57-7.47Z"/><path class="cls-36" d="M376.52,389.09c.67-.3,1.35-.58,2-.89,7.81-3.56,15.71-6.95,23.38-10.77a17.62,17.62,0,0,1,12.15-1.71c2.08.45,4.17.85,6.26,1.28-.42,4.9-.83,9.54-1.24,14.25-.34,0-.66.1-.89,0-6.15-3.07-12.78-3.41-19.43-3.16-6.82.27-13.63.9-20.44,1.36-.56,0-1.13,0-1.69,0Z"/><path class="cls-37" d="M455.4,488.69c.94-3.89,1.8-7.45,2.71-11.24,3.57,2.57,6.91,4.92,10.2,7.35s6.57,4.9,9.82,7.4c6.35,4.87,11.27,11.06,16.08,17.35a7.12,7.12,0,0,1,.63,1c1.36,2.4,1.11,3.45-1.26,4.74a25.22,25.22,0,0,1-2.7,1.15C482.16,503.16,472,492.06,455.4,488.69Z"/><path class="cls-6" d="M272.19,562.86A41.33,41.33,0,0,0,285,556c3.52-2.93,6.74-6.2,10.27-9.48,5.9,4.59,9.36,11.25,13.64,17.42C304.7,564.72,278.1,564,272.19,562.86Z"/><path class="cls-38" d="M356.54,444.64l16.74-3.53c2.11,13.17,4.18,26,6.25,38.9l-.61.25L376,474.37c-1-2.1-2-4.22-3.11-6.3s-2.13-4.18-3.33-6.19-2.39-3.81-3.7-5.63-2.83-3.74-4.29-5.57S358.6,447.1,356.54,444.64Z"/><path class="cls-39" d="M289.5,450.45l-7.63,4.3c2.09-16.18.2-31.28-7-45.71l6.29-1.36c2.51,6.62,6.55,12.55,7,19.77.18,2.72.44,5.44.58,8.17C289.06,440.48,289.26,445.34,289.5,450.45Z"/><path class="cls-40" d="M467.44,523.37c-6.79,5-19,5.75-29.51,3.8l9.18-15.94c3.32,1.93,6.69,4,10.15,5.88S464.43,520.59,467.44,523.37Z"/><path class="cls-41" d="M300.37,442.55c-.11-13.18-1.55-25.69-8.51-37.21L300,403.6c.16,3.57,1.95,6.37,3.39,9.34a33.53,33.53,0,0,1,3.84,14,11.42,11.42,0,0,0,.3,2.61,7,7,0,0,1-1.9,7.21C303.84,438.64,302.13,440.62,300.37,442.55Z"/><path class="cls-42" d="M449.74,504.74q1.69-4.64,3.29-9c.44,0,.67-.12.81,0,8.15,4.39,16.36,8.7,22.4,16a29.67,29.67,0,0,1,5.1,8.08c-.81,1-1.52,1.27-2.44.25-7.1-7.8-16.52-11.44-26.24-14.51C451.74,505.31,450.81,505.06,449.74,504.74Z"/><path class="cls-43" d="M405.38,439.67c4.46.24,8,2.31,12.2,3.56-1.94,10.94-3.85,21.75-5.76,32.56l-.46,0c-.59-6-.87-12.05-1.85-18S406.82,445.86,405.38,439.67Z"/><path class="cls-44" d="M316.65,416.18c-1.69-5.34-3.37-10.4-7.59-14.38l25.67-7.58C326.73,400.42,320.62,407.37,316.65,416.18Z"/><path class="cls-45" d="M464.65,445.78c.22-5.54.41-10.59.6-15.63,2.78,1.25,15.2,17,18.58,23.82C477.45,450.32,471.74,446.33,464.65,445.78Z"/><path class="cls-46" d="M342.46,399.45c3.2-4.22,7.21-5.41,12.31-5Z"/><path d="M364.81,351.12c8.14-4.34,16.23-2.95,24.26.68a4.6,4.6,0,0,1,2.8,3.05,8.83,8.83,0,0,1-1.45.25c-7.55-.24-15.05,0-22.19,2.8a8.09,8.09,0,0,1-7.5-.46c-1.77-1-3.61-1.93-5.41-2.91a28.13,28.13,0,0,0-12.05-3.24,50.6,50.6,0,0,0-19,2.32,26.36,26.36,0,0,1-4.53,1.14c-1.81.26-2.87-1-2.29-2.67a9.77,9.77,0,0,1,1.77-3,17.65,17.65,0,0,1,7.4-5.1,36.55,36.55,0,0,1,29.55,1C359.23,346.39,361.82,349,364.81,351.12Z"/><path d="M207.6,340.12a34.7,34.7,0,0,1,17.82,5.06,9.9,9.9,0,0,1,2.81,2.5c1.69,2.3.75,4.54-2.07,4.83a15.89,15.89,0,0,1-4.9-.4c-3.33-.75-6.57-1.9-9.91-2.52-7.11-1.33-14-.08-20.62,2.55-2.72,1.07-5.34,2.39-8.08,3.41a15.17,15.17,0,0,1-4.53.88,2.38,2.38,0,0,1-2.44-1.76c-.33-1.14.37-1.83,1.15-2.47a53.76,53.76,0,0,1,24.67-11.42C203.51,340.42,205.56,340.33,207.6,340.12Z"/><rect class="cls-47" x="300.49" y="6" width="48.14" height="223.2"/><path class="cls-47" d="M319.54,247.05V294.8H256V436.13H208.2V294.8H181.79V247.05H208.2V220.71h0c0-37.55,31.64-68.13,70.3-68.13s70.13,30.58,70.13,68.13H300.89c0-11.23-10-20.38-22.39-20.38S256,209.48,256,220.71h0v26.34Z"/><path class="cls-47" d="M437.15,288.24V436.13H389.41V288.24a20.59,20.59,0,0,0-41.17,0V436.13H300.49V294.8h18.66V247.05H300.49V220.71h47.75v2.57a68.34,68.34,0,0,1,88.91,65Z"/><rect class="cls-48" x="6" y="6" width="603.73" height="603.73" rx="127.17"/></g></g></svg>