<?xml version="1.0" encoding="UTF-8"?>
<svg xmlns="http://www.w3.org/2000/svg" xmlns:xlink="http://www.w3.org/1999/xlink" width="713.28pt" height="684.18pt" viewBox="0 0 713.28 684.18" version="1.1">
<defs>
<clipPath id="clip1">
  <path d="M 269 491 L 713.28125 491 L 713.28125 684.179688 L 269 684.179688 Z M 269 491 "/>
</clipPath>
</defs>
<g id="surface1">
<path style="fill:none;stroke-width:300;stroke-linecap:butt;stroke-linejoin:round;stroke:rgb(10.984802%,10.984802%,10.594177%);stroke-opacity:1;stroke-miterlimit:10;" d="M 456.054688 4125.2375 L 456.054688 2771.682813 " transform="matrix(0.1,0,0,-0.1,0,684.18)"/>
<path style="fill:none;stroke-width:300;stroke-linecap:butt;stroke-linejoin:round;stroke:rgb(10.984802%,10.984802%,10.594177%);stroke-opacity:1;stroke-miterlimit:10;" d="M 2534.375 4125.2375 L 2534.375 2771.682813 " transform="matrix(0.1,0,0,-0.1,0,684.18)"/>
<path style="fill:none;stroke-width:300;stroke-linecap:butt;stroke-linejoin:round;stroke:rgb(10.984802%,10.984802%,10.594177%);stroke-opacity:1;stroke-miterlimit:10;" d="M 2989.726563 3701.01875 C 2989.726563 3854.573438 3114.804688 3979.104688 3269.0625 3979.104688 C 3423.359375 3979.104688 3548.4375 3854.573438 3548.4375 3701.01875 " transform="matrix(0.1,0,0,-0.1,0,684.18)"/>
<path style="fill:none;stroke-width:300;stroke-linecap:butt;stroke-linejoin:round;stroke:rgb(10.984802%,10.984802%,10.594177%);stroke-opacity:1;stroke-miterlimit:10;" d="M 747.8125 4403.323438 C 908.28125 4403.323438 1038.398438 4278.83125 1038.398438 4125.2375 " transform="matrix(0.1,0,0,-0.1,0,684.18)"/>
<path style="fill:none;stroke-width:300;stroke-linecap:butt;stroke-linejoin:round;stroke:rgb(10.984802%,10.984802%,10.594177%);stroke-opacity:1;stroke-miterlimit:10;" d="M 5121.054688 2632.620313 C 4960.546875 2632.620313 4830.46875 2757.1125 4830.46875 2910.70625 " transform="matrix(0.1,0,0,-0.1,0,684.18)"/>
<path style="fill:none;stroke-width:300;stroke-linecap:butt;stroke-linejoin:round;stroke:rgb(10.984802%,10.984802%,10.594177%);stroke-opacity:1;stroke-miterlimit:10;" d="M 457.1875 4125.2375 C 457.1875 4278.83125 587.304688 4403.323438 747.8125 4403.323438 " transform="matrix(0.1,0,0,-0.1,0,684.18)"/>
<path style="fill:none;stroke-width:300;stroke-linecap:butt;stroke-linejoin:round;stroke:rgb(10.984802%,10.984802%,10.594177%);stroke-opacity:1;stroke-miterlimit:10;" d="M 2989.726563 2771.682813 L 2989.726563 4125.2375 " transform="matrix(0.1,0,0,-0.1,0,684.18)"/>
<path style="fill:none;stroke-width:300;stroke-linecap:butt;stroke-linejoin:round;stroke:rgb(10.984802%,10.984802%,10.594177%);stroke-opacity:1;stroke-miterlimit:10;" d="M 3548.4375 2771.682813 L 3548.4375 3750.354688 " transform="matrix(0.1,0,0,-0.1,0,684.18)"/>
<path style="fill:none;stroke-width:300;stroke-linecap:butt;stroke-linejoin:round;stroke:rgb(10.984802%,10.984802%,10.594177%);stroke-opacity:1;stroke-miterlimit:10;" d="M 6284.101563 3187.26875 C 6284.101563 3340.8625 6409.179688 3465.354688 6563.476563 3465.354688 C 6717.734375 3465.354688 6842.8125 3340.8625 6842.8125 3187.26875 " transform="matrix(0.1,0,0,-0.1,0,684.18)"/>
<path style="fill:none;stroke-width:300;stroke-linecap:butt;stroke-linejoin:round;stroke:rgb(10.984802%,10.984802%,10.594177%);stroke-opacity:1;stroke-miterlimit:10;" d="M 6842.8125 2750.08125 L 6842.8125 3242.659375 " transform="matrix(0.1,0,0,-0.1,0,684.18)"/>
<path style="fill:none;stroke-width:300;stroke-linecap:butt;stroke-linejoin:round;stroke:rgb(10.984802%,10.984802%,10.594177%);stroke-opacity:1;stroke-miterlimit:10;" d="M 1281.796875 3190.042188 C 1281.796875 3021.995313 1162.265625 2885.784375 1014.804688 2885.784375 C 867.34375 2885.784375 747.8125 3021.995313 747.8125 3190.042188 C 747.8125 3358.089063 867.34375 3494.3 1014.804688 3494.3 C 1162.265625 3494.3 1281.796875 3358.089063 1281.796875 3190.042188 Z M 1281.796875 3190.042188 " transform="matrix(0.1,0,0,-0.1,0,684.18)"/>
<path style="fill:none;stroke-width:300;stroke-linecap:butt;stroke-linejoin:round;stroke:rgb(10.984802%,10.984802%,10.594177%);stroke-opacity:1;stroke-miterlimit:10;" d="M 1908.085938 3190.042188 C 1908.085938 3021.995313 1788.554688 2885.784375 1641.09375 2885.784375 C 1493.632813 2885.784375 1374.101563 3021.995313 1374.101563 3190.042188 C 1374.101563 3358.089063 1493.632813 3494.3 1641.09375 3494.3 C 1788.554688 3494.3 1908.085938 3358.089063 1908.085938 3190.042188 Z M 1908.085938 3190.042188 " transform="matrix(0.1,0,0,-0.1,0,684.18)"/>
<path style="fill:none;stroke-width:300;stroke-linecap:butt;stroke-linejoin:round;stroke:rgb(10.984802%,10.984802%,10.594177%);stroke-opacity:1;stroke-miterlimit:10;" d="M 6060.898438 3186.4875 C 6060.898438 3018.440625 5941.328125 2882.229688 5793.867188 2882.229688 C 5646.40625 2882.229688 5526.875 3018.440625 5526.875 3186.4875 C 5526.875 3354.534375 5646.40625 3490.745313 5793.867188 3490.745313 C 5941.328125 3490.745313 6060.898438 3354.534375 6060.898438 3186.4875 Z M 6060.898438 3186.4875 " transform="matrix(0.1,0,0,-0.1,0,684.18)"/>
<path style="fill:none;stroke-width:300;stroke-linecap:butt;stroke-linejoin:round;stroke:rgb(10.984802%,10.984802%,10.594177%);stroke-opacity:1;stroke-miterlimit:10;" d="M 5349.6875 3886.057813 C 5349.6875 3860.667188 5329.101563 3840.042188 5303.671875 3840.042188 C 5278.242188 3840.042188 5257.65625 3860.667188 5257.65625 3886.057813 C 5257.65625 3911.4875 5278.242188 3932.073438 5303.671875 3932.073438 C 5329.101563 3932.073438 5349.6875 3911.4875 5349.6875 3886.057813 Z M 5349.6875 3886.057813 " transform="matrix(0.1,0,0,-0.1,0,684.18)"/>
<path style="fill:none;stroke-width:300;stroke-linecap:butt;stroke-linejoin:round;stroke:rgb(10.984802%,10.984802%,10.594177%);stroke-opacity:1;stroke-miterlimit:10;" d="M 2534.375 3190.042188 C 2534.375 3021.995313 2414.804688 2885.784375 2267.382813 2885.784375 C 2119.921875 2885.784375 2000.390625 3021.995313 2000.390625 3190.042188 C 2000.390625 3358.089063 2119.921875 3494.3 2267.382813 3494.3 C 2414.804688 3494.3 2534.375 3358.089063 2534.375 3190.042188 Z M 2534.375 3190.042188 " transform="matrix(0.1,0,0,-0.1,0,684.18)"/>
<path style="fill:none;stroke-width:300;stroke-linecap:butt;stroke-linejoin:round;stroke:rgb(10.984802%,10.984802%,10.594177%);stroke-opacity:1;stroke-miterlimit:10;" d="M 4356.054688 3622.776563 L 4356.054688 2749.964063 " transform="matrix(0.1,0,0,-0.1,0,684.18)"/>
<path style="fill:none;stroke-width:300;stroke-linecap:butt;stroke-linejoin:round;stroke:rgb(10.984802%,10.984802%,10.594177%);stroke-opacity:1;stroke-miterlimit:10;" d="M 4830.46875 3719.026563 L 4830.46875 2910.70625 " transform="matrix(0.1,0,0,-0.1,0,684.18)"/>
<path style="fill:none;stroke-width:300;stroke-linecap:butt;stroke-linejoin:round;stroke:rgb(10.984802%,10.984802%,10.594177%);stroke-opacity:1;stroke-miterlimit:10;" d="M 5303.671875 3644.6125 L 5303.671875 2771.8 " transform="matrix(0.1,0,0,-0.1,0,684.18)"/>
<path style="fill:none;stroke-width:300;stroke-linecap:butt;stroke-linejoin:round;stroke:rgb(10.984802%,10.984802%,10.594177%);stroke-opacity:1;stroke-miterlimit:10;" d="M 6284.101563 3622.89375 L 6284.101563 2750.08125 " transform="matrix(0.1,0,0,-0.1,0,684.18)"/>
<path style="fill:none;stroke-width:300;stroke-linecap:butt;stroke-linejoin:round;stroke:rgb(10.984802%,10.984802%,10.594177%);stroke-opacity:1;stroke-miterlimit:10;" d="M 4356.054688 3168.323438 C 4356.054688 3000.276563 4236.484375 2864.065625 4089.023438 2864.065625 C 3941.5625 2864.065625 3822.03125 3000.276563 3822.03125 3168.323438 C 3822.03125 3336.33125 3941.5625 3472.58125 4089.023438 3472.58125 C 4236.484375 3472.58125 4356.054688 3336.33125 4356.054688 3168.323438 Z M 4356.054688 3168.323438 " transform="matrix(0.1,0,0,-0.1,0,684.18)"/>
<path style="fill:none;stroke-width:300;stroke-linecap:butt;stroke-linejoin:round;stroke:rgb(10.984802%,10.984802%,10.594177%);stroke-opacity:1;stroke-miterlimit:10;" d="M 140.039063 3809.76875 L 885 3809.76875 " transform="matrix(0.1,0,0,-0.1,0,684.18)"/>
<path style="fill:none;stroke-width:300;stroke-linecap:butt;stroke-linejoin:round;stroke:rgb(10.984802%,10.984802%,10.594177%);stroke-opacity:1;stroke-miterlimit:10;" d="M 4505.3125 3341.057813 L 5155.585938 3341.057813 " transform="matrix(0.1,0,0,-0.1,0,684.18)"/>
<path style=" stroke:none;fill-rule:nonzero;fill:rgb(95.3125%,57.226563%,0%);fill-opacity:1;" d="M 223.03125 157.25 C 216.679688 157.25 211.328125 150.191406 211.328125 141.820313 C 211.328125 133.460938 216.679688 126.398438 223.03125 126.398438 C 229.371094 126.398438 234.71875 133.460938 234.71875 141.820313 C 234.71875 150.191406 229.371094 157.25 223.03125 157.25 M 160.398438 157.25 C 154.050781 157.25 148.699219 150.191406 148.699219 141.820313 C 148.699219 133.460938 154.050781 126.398438 160.398438 126.398438 C 166.738281 126.398438 172.101563 133.460938 172.101563 141.820313 C 172.101563 150.191406 166.738281 157.25 160.398438 157.25 M 97.769531 157.25 C 91.429688 157.25 86.070313 150.191406 86.070313 141.820313 C 86.070313 133.460938 91.429688 126.398438 97.769531 126.398438 C 104.109375 126.398438 109.46875 133.460938 109.46875 141.820313 C 109.46875 150.191406 104.109375 157.25 97.769531 157.25 M 234.71875 48.300781 L 234.71875 98.21875 C 231.011719 97.039063 227.089844 96.398438 223.03125 96.398438 C 210.558594 96.398438 199.359375 102.390625 191.71875 111.859375 C 184.070313 102.390625 172.859375 96.398438 160.398438 96.398438 C 147.929688 96.398438 136.730469 102.390625 129.078125 111.859375 C 121.441406 102.390625 110.230469 96.398438 97.769531 96.398438 C 77.589844 96.398438 60.71875 112.089844 56.890625 132.851563 L 56.890625 94.851563 L 84.789063 94.851563 L 84.789063 64.851563 L 56.890625 64.851563 L 56.890625 48.300781 L 57.011719 48.300781 C 57.011719 41.238281 63.308594 35.5 71.070313 35.5 C 78.820313 35.5 85.128906 41.238281 85.128906 48.300781 L 115.128906 48.300781 C 115.128906 24.699219 95.359375 5.5 71.070313 5.5 C 46.769531 5.5 27.011719 24.699219 27.011719 48.300781 L 26.890625 48.300781 L 26.890625 64.851563 L 10.289063 64.851563 L 10.289063 94.851563 L 26.890625 94.851563 L 26.890625 183.660156 L 56.890625 183.660156 L 56.890625 150.789063 C 60.71875 171.558594 77.589844 187.25 97.769531 187.25 C 110.238281 187.25 121.441406 181.261719 129.078125 171.78125 C 136.71875 181.261719 147.929688 187.25 160.398438 187.25 C 172.871094 187.25 184.070313 181.261719 191.71875 171.78125 C 199.351563 181.261719 210.558594 187.25 223.03125 187.25 C 228.789063 187.25 234.28125 185.96875 239.28125 183.660156 L 264.71875 183.660156 L 264.71875 48.300781 "/>
<path style="fill:none;stroke-width:110;stroke-linecap:butt;stroke-linejoin:round;stroke:rgb(10.984802%,10.984802%,10.594177%);stroke-opacity:1;stroke-miterlimit:10;" d="M 2230.3125 5269.3 C 2166.796875 5269.3 2113.28125 5339.885938 2113.28125 5423.596875 C 2113.28125 5507.190625 2166.796875 5577.815625 2230.3125 5577.815625 C 2293.710938 5577.815625 2347.1875 5507.190625 2347.1875 5423.596875 C 2347.1875 5339.885938 2293.710938 5269.3 2230.3125 5269.3 Z M 1603.984375 5269.3 C 1540.507813 5269.3 1486.992188 5339.885938 1486.992188 5423.596875 C 1486.992188 5507.190625 1540.507813 5577.815625 1603.984375 5577.815625 C 1667.382813 5577.815625 1721.015625 5507.190625 1721.015625 5423.596875 C 1721.015625 5339.885938 1667.382813 5269.3 1603.984375 5269.3 Z M 977.695313 5269.3 C 914.296875 5269.3 860.703125 5339.885938 860.703125 5423.596875 C 860.703125 5507.190625 914.296875 5577.815625 977.695313 5577.815625 C 1041.09375 5577.815625 1094.6875 5507.190625 1094.6875 5423.596875 C 1094.6875 5339.885938 1041.09375 5269.3 977.695313 5269.3 Z M 2347.1875 6358.792188 L 2347.1875 5859.6125 C 2310.117188 5871.409375 2270.898438 5877.815625 2230.3125 5877.815625 C 2105.585938 5877.815625 1993.59375 5817.89375 1917.1875 5723.20625 C 1840.703125 5817.89375 1728.59375 5877.815625 1603.984375 5877.815625 C 1479.296875 5877.815625 1367.304688 5817.89375 1290.78125 5723.20625 C 1214.414063 5817.89375 1102.304688 5877.815625 977.695313 5877.815625 C 775.898438 5877.815625 607.1875 5720.901563 568.90625 5513.284375 L 568.90625 5893.284375 L 847.890625 5893.284375 L 847.890625 6193.284375 L 568.90625 6193.284375 L 568.90625 6358.792188 L 570.117188 6358.792188 C 570.117188 6429.417188 633.085938 6486.8 710.703125 6486.8 C 788.203125 6486.8 851.289063 6429.417188 851.289063 6358.792188 L 1151.289063 6358.792188 C 1151.289063 6594.807813 953.59375 6786.8 710.703125 6786.8 C 467.695313 6786.8 270.117188 6594.807813 270.117188 6358.792188 L 268.90625 6358.792188 L 268.90625 6193.284375 L 102.890625 6193.284375 L 102.890625 5893.284375 L 268.90625 5893.284375 L 268.90625 5005.198438 L 568.90625 5005.198438 L 568.90625 5333.909375 C 607.1875 5126.214063 775.898438 4969.3 977.695313 4969.3 C 1102.382813 4969.3 1214.414063 5029.182813 1290.78125 5123.9875 C 1367.1875 5029.182813 1479.296875 4969.3 1603.984375 4969.3 C 1728.710938 4969.3 1840.703125 5029.182813 1917.1875 5123.9875 C 1993.515625 5029.182813 2105.585938 4969.3 2230.3125 4969.3 C 2287.890625 4969.3 2342.8125 4982.1125 2392.8125 5005.198438 L 2647.1875 5005.198438 L 2647.1875 6358.792188 Z M 2347.1875 6358.792188 " transform="matrix(0.1,0,0,-0.1,0,684.18)"/>
<path style=" stroke:none;fill-rule:nonzero;fill:rgb(95.3125%,57.226563%,0%);fill-opacity:1;" d="M 366.128906 85.789063 L 366.128906 90.730469 C 366.128906 89.058594 366.03125 87.410156 365.839844 85.789063 "/>
<path style="fill:none;stroke-width:110;stroke-linecap:butt;stroke-linejoin:round;stroke:rgb(10.984802%,10.984802%,10.594177%);stroke-opacity:1;stroke-miterlimit:10;" d="M 3661.289063 5983.909375 L 3661.289063 5934.495313 C 3661.289063 5951.214063 3660.3125 5967.698438 3658.398438 5983.909375 Z M 3661.289063 5983.909375 " transform="matrix(0.1,0,0,-0.1,0,684.18)"/>
<path style=" stroke:none;fill-rule:nonzero;fill:rgb(58.396912%,75.78125%,11.767578%);fill-opacity:1;" d="M 575.679688 157.601563 C 569.339844 157.601563 563.980469 150.539063 563.980469 142.179688 C 563.980469 133.820313 569.339844 126.75 575.679688 126.75 C 582.019531 126.75 587.378906 133.820313 587.378906 142.179688 C 587.378906 150.539063 582.019531 157.601563 575.679688 157.601563 M 405.191406 159.421875 C 398.851563 159.421875 393.488281 152.359375 393.488281 144 C 393.488281 135.640625 398.851563 128.570313 405.191406 128.570313 C 411.53125 128.570313 416.890625 135.640625 416.890625 144 C 416.890625 152.359375 411.53125 159.421875 405.191406 159.421875 M 695.210938 136.558594 C 692.480469 115.558594 674.429688 99.289063 652.628906 99.289063 C 648.128906 99.289063 643.78125 99.988281 639.699219 101.28125 L 639.699219 98.539063 L 609.699219 98.539063 L 609.699219 115.949219 C 602.148438 104.339844 589.710938 96.75 575.679688 96.75 C 561.648438 96.75 549.21875 104.328125 541.660156 115.929688 L 541.660156 96.371094 L 511.660156 96.371094 L 511.660156 111.71875 L 494.328125 111.71875 L 494.328125 88.929688 L 464.328125 88.929688 L 464.328125 111.71875 L 446.890625 111.71875 L 446.890625 98.550781 L 416.890625 98.550781 L 416.890625 100.390625 C 413.179688 99.199219 409.25 98.570313 405.191406 98.570313 C 387.328125 98.570313 372.050781 110.871094 366.128906 128.109375 L 366.128906 90.730469 C 366.128906 89.058594 366.03125 87.410156 365.839844 85.789063 C 363.378906 64.5 345.199219 47.921875 323.199219 47.921875 C 318.691406 47.921875 314.351563 48.621094 310.261719 49.910156 L 310.261719 48.300781 L 280.261719 48.300781 L 280.261719 183.660156 L 310.261719 183.660156 L 310.261719 90.730469 C 310.261719 83.671875 316.058594 77.921875 323.199219 77.921875 C 330.328125 77.921875 336.128906 83.671875 336.128906 90.730469 L 336.128906 183.660156 L 366.128906 183.660156 L 366.128906 159.890625 C 372.050781 177.121094 387.328125 189.421875 405.191406 189.421875 C 410.949219 189.421875 416.441406 188.140625 421.429688 185.828125 L 446.890625 185.828125 L 446.890625 144 C 446.890625 143.230469 446.871094 142.46875 446.839844 141.71875 L 446.820313 141.71875 L 446.820313 141.339844 C 446.828125 141.460938 446.828125 141.589844 446.839844 141.71875 L 464.328125 141.71875 L 464.328125 169.761719 C 464.328125 193.359375 484.101563 212.570313 508.390625 212.570313 L 508.390625 182.570313 C 500.640625 182.570313 494.328125 176.820313 494.328125 169.761719 L 494.328125 141.71875 L 511.660156 141.71875 L 511.660156 183.648438 L 541.660156 183.648438 L 541.660156 168.429688 C 549.21875 180.019531 561.648438 187.601563 575.679688 187.601563 C 589.710938 187.601563 602.148438 180.011719 609.699219 168.410156 L 609.699219 185.820313 L 639.699219 185.820313 L 639.699219 142.101563 C 639.699219 135.039063 645.5 129.289063 652.628906 129.289063 C 659.769531 129.289063 665.570313 135.039063 665.570313 142.101563 L 665.570313 185.820313 L 695.570313 185.820313 L 695.570313 142.101563 C 695.570313 140.21875 695.449219 138.371094 695.210938 136.558594 "/>
<path style="fill:none;stroke-width:110;stroke-linecap:butt;stroke-linejoin:round;stroke:rgb(10.984802%,10.984802%,10.594177%);stroke-opacity:1;stroke-miterlimit:10;" d="M 5756.796875 5265.784375 C 5693.398438 5265.784375 5639.804688 5336.409375 5639.804688 5420.003125 C 5639.804688 5503.596875 5693.398438 5574.3 5756.796875 5574.3 C 5820.195313 5574.3 5873.789063 5503.596875 5873.789063 5420.003125 C 5873.789063 5336.409375 5820.195313 5265.784375 5756.796875 5265.784375 Z M 4051.914063 5247.58125 C 3988.515625 5247.58125 3934.882813 5318.20625 3934.882813 5401.8 C 3934.882813 5485.39375 3988.515625 5556.096875 4051.914063 5556.096875 C 4115.3125 5556.096875 4168.90625 5485.39375 4168.90625 5401.8 C 4168.90625 5318.20625 4115.3125 5247.58125 4051.914063 5247.58125 Z M 6952.109375 5476.214063 C 6924.804688 5686.214063 6744.296875 5848.909375 6526.289063 5848.909375 C 6481.289063 5848.909375 6437.8125 5841.917188 6396.992188 5828.9875 L 6396.992188 5856.409375 L 6096.992188 5856.409375 L 6096.992188 5682.307813 C 6021.484375 5798.401563 5897.109375 5874.3 5756.796875 5874.3 C 5616.484375 5874.3 5492.1875 5798.51875 5416.601563 5682.503125 L 5416.601563 5878.089063 L 5116.601563 5878.089063 L 5116.601563 5724.6125 L 4943.28125 5724.6125 L 4943.28125 5952.503125 L 4643.28125 5952.503125 L 4643.28125 5724.6125 L 4468.90625 5724.6125 L 4468.90625 5856.292188 L 4168.90625 5856.292188 L 4168.90625 5837.89375 C 4131.796875 5849.807813 4092.5 5856.096875 4051.914063 5856.096875 C 3873.28125 5856.096875 3720.507813 5733.089063 3661.289063 5560.70625 L 3661.289063 5934.495313 C 3661.289063 5951.214063 3660.3125 5967.698438 3658.398438 5983.909375 C 3633.789063 6196.8 3451.992188 6362.58125 3231.992188 6362.58125 C 3186.914063 6362.58125 3143.515625 6355.589063 3102.617188 6342.698438 L 3102.617188 6358.792188 L 2802.617188 6358.792188 L 2802.617188 5005.198438 L 3102.617188 5005.198438 L 3102.617188 5934.495313 C 3102.617188 6005.08125 3160.585938 6062.58125 3231.992188 6062.58125 C 3303.28125 6062.58125 3361.289063 6005.08125 3361.289063 5934.495313 L 3361.289063 5005.198438 L 3661.289063 5005.198438 L 3661.289063 5242.89375 C 3720.507813 5070.589063 3873.28125 4947.58125 4051.914063 4947.58125 C 4109.492188 4947.58125 4164.414063 4960.39375 4214.296875 4983.51875 L 4468.90625 4983.51875 L 4468.90625 5401.8 C 4468.90625 5409.495313 4468.710938 5417.1125 4468.398438 5424.6125 L 4468.203125 5424.6125 L 4468.203125 5428.401563 C 4468.28125 5427.190625 4468.28125 5425.901563 4468.398438 5424.6125 L 4643.28125 5424.6125 L 4643.28125 5144.182813 C 4643.28125 4908.20625 4841.015625 4716.096875 5083.90625 4716.096875 L 5083.90625 5016.096875 C 5006.40625 5016.096875 4943.28125 5073.596875 4943.28125 5144.182813 L 4943.28125 5424.6125 L 5116.601563 5424.6125 L 5116.601563 5005.315625 L 5416.601563 5005.315625 L 5416.601563 5157.503125 C 5492.1875 5041.604688 5616.484375 4965.784375 5756.796875 4965.784375 C 5897.109375 4965.784375 6021.484375 5041.682813 6096.992188 5157.698438 L 6096.992188 4983.596875 L 6396.992188 4983.596875 L 6396.992188 5420.784375 C 6396.992188 5491.409375 6455 5548.909375 6526.289063 5548.909375 C 6597.695313 5548.909375 6655.703125 5491.409375 6655.703125 5420.784375 L 6655.703125 4983.596875 L 6955.703125 4983.596875 L 6955.703125 5420.784375 C 6955.703125 5439.6125 6954.492188 5458.089063 6952.109375 5476.214063 Z M 6952.109375 5476.214063 " transform="matrix(0.1,0,0,-0.1,0,684.18)"/>
<path style=" stroke:none;fill-rule:nonzero;fill:rgb(95.3125%,57.226563%,0%);fill-opacity:1;" d="M 695.570313 136.558594 L 695.570313 142.101563 C 695.570313 140.21875 695.449219 138.371094 695.210938 136.558594 "/>
<path style="fill:none;stroke-width:110;stroke-linecap:butt;stroke-linejoin:round;stroke:rgb(10.984802%,10.984802%,10.594177%);stroke-opacity:1;stroke-miterlimit:10;" d="M 6955.703125 5476.214063 L 6955.703125 5420.784375 C 6955.703125 5439.6125 6954.492188 5458.089063 6952.109375 5476.214063 Z M 6955.703125 5476.214063 " transform="matrix(0.1,0,0,-0.1,0,684.18)"/>
<path style=" stroke:none;fill-rule:nonzero;fill:rgb(58.396912%,75.78125%,11.767578%);fill-opacity:1;" d="M 546.261719 72.21875 C 546.261719 83.03125 537.460938 91.820313 526.660156 91.820313 C 515.851563 91.820313 507.050781 83.03125 507.050781 72.21875 C 507.050781 61.410156 515.851563 52.621094 526.660156 52.621094 C 537.460938 52.621094 546.261719 61.410156 546.261719 72.21875 "/>
<path style="fill:none;stroke-width:110;stroke-linecap:butt;stroke-linejoin:round;stroke:rgb(10.984802%,10.984802%,10.594177%);stroke-opacity:1;stroke-miterlimit:10;" d="M 5462.617188 6119.6125 C 5462.617188 6011.4875 5374.609375 5923.596875 5266.601563 5923.596875 C 5158.515625 5923.596875 5070.507813 6011.4875 5070.507813 6119.6125 C 5070.507813 6227.698438 5158.515625 6315.589063 5266.601563 6315.589063 C 5374.609375 6315.589063 5462.617188 6227.698438 5462.617188 6119.6125 Z M 5462.617188 6119.6125 " transform="matrix(0.1,0,0,-0.1,0,684.18)"/>
<path style=" stroke:none;fill-rule:nonzero;fill:rgb(95.3125%,57.226563%,0%);fill-opacity:1;" d="M 446.839844 141.71875 L 446.820313 141.71875 L 446.820313 141.339844 C 446.828125 141.460938 446.828125 141.589844 446.839844 141.71875 "/>
<path style="fill:none;stroke-width:110;stroke-linecap:butt;stroke-linejoin:round;stroke:rgb(10.984802%,10.984802%,10.594177%);stroke-opacity:1;stroke-miterlimit:10;" d="M 4468.398438 5424.6125 L 4468.203125 5424.6125 L 4468.203125 5428.401563 C 4468.28125 5427.190625 4468.28125 5425.901563 4468.398438 5424.6125 Z M 4468.398438 5424.6125 " transform="matrix(0.1,0,0,-0.1,0,684.18)"/>
<path style=" stroke:none;fill-rule:nonzero;fill:rgb(95.3125%,57.226563%,0%);fill-opacity:1;" d="M 446.890625 141.71875 L 446.890625 144 C 446.890625 143.230469 446.871094 142.46875 446.839844 141.71875 "/>
<path style="fill:none;stroke-width:110;stroke-linecap:butt;stroke-linejoin:round;stroke:rgb(10.984802%,10.984802%,10.594177%);stroke-opacity:1;stroke-miterlimit:10;" d="M 4468.90625 5424.6125 L 4468.90625 5401.8 C 4468.90625 5409.495313 4468.710938 5417.1125 4468.398438 5424.6125 Z M 4468.90625 5424.6125 " transform="matrix(0.1,0,0,-0.1,0,684.18)"/>
<path style=" stroke:none;fill-rule:nonzero;fill:rgb(95.3125%,57.226563%,0%);fill-opacity:1;" d="M 446.820313 141.339844 L 446.820313 141.71875 L 446.839844 141.71875 C 446.828125 141.589844 446.828125 141.460938 446.820313 141.339844 "/>
<path style="fill:none;stroke-width:110;stroke-linecap:butt;stroke-linejoin:round;stroke:rgb(10.984802%,10.984802%,10.594177%);stroke-opacity:1;stroke-miterlimit:10;" d="M 4468.203125 5428.401563 L 4468.203125 5424.6125 L 4468.398438 5424.6125 C 4468.28125 5425.901563 4468.28125 5427.190625 4468.203125 5428.401563 Z M 4468.203125 5428.401563 " transform="matrix(0.1,0,0,-0.1,0,684.18)"/>
<path style=" stroke:none;fill-rule:nonzero;fill:rgb(95.3125%,57.226563%,0%);fill-opacity:1;" d="M 446.839844 141.71875 L 446.820313 141.71875 L 446.820313 141.339844 C 446.828125 141.460938 446.828125 141.589844 446.839844 141.71875 "/>
<path style="fill:none;stroke-width:110;stroke-linecap:butt;stroke-linejoin:round;stroke:rgb(10.984802%,10.984802%,10.594177%);stroke-opacity:1;stroke-miterlimit:10;" d="M 4468.398438 5424.6125 L 4468.203125 5424.6125 L 4468.203125 5428.401563 C 4468.28125 5427.190625 4468.28125 5425.901563 4468.398438 5424.6125 Z M 4468.398438 5424.6125 " transform="matrix(0.1,0,0,-0.1,0,684.18)"/>
<path style=" stroke:none;fill-rule:nonzero;fill:rgb(100%,100%,100%);fill-opacity:1;" d="M 579.390625 591.371094 C 577.496094 591.371094 574.691406 594.90625 574.691406 599.789063 C 574.691406 604.679688 577.496094 608.21875 579.390625 608.21875 C 581.28125 608.21875 584.089844 604.679688 584.089844 599.789063 C 584.089844 594.90625 581.28125 591.371094 579.390625 591.371094 M 408.898438 593.179688 C 407.007813 593.179688 404.199219 596.71875 404.199219 601.609375 C 404.199219 606.496094 407.007813 610.03125 408.898438 610.03125 C 410.792969 610.03125 413.601563 606.496094 413.601563 601.609375 C 413.601563 596.71875 410.792969 593.179688 408.898438 593.179688 M 505.039063 627.371094 C 505.039063 629.398438 506.386719 631.226563 508.371094 632.269531 L 508.371094 606.332031 L 505.039063 606.332031 Z M 512.109375 677.179688 C 483.949219 677.179688 461.039063 654.835938 461.039063 627.371094 L 461.039063 606.332031 L 457.601563 606.332031 L 457.601563 643.449219 C 457.601563 647.316406 454.464844 650.449219 450.601563 650.449219 L 426.609375 650.449219 C 420.953125 652.824219 415.003906 654.03125 408.898438 654.03125 C 396.886719 654.03125 385.550781 649.199219 376.839844 641.007813 L 376.839844 641.269531 C 376.839844 645.136719 373.707031 648.269531 369.839844 648.269531 L 339.839844 648.269531 C 335.972656 648.269531 332.839844 645.136719 332.839844 641.269531 L 332.839844 548.339844 C 332.839844 545.136719 330.179688 542.53125 326.910156 542.53125 C 323.636719 542.53125 320.96875 545.136719 320.96875 548.339844 L 320.96875 641.269531 C 320.96875 645.136719 317.835938 648.269531 313.96875 648.269531 L 283.96875 648.269531 C 280.105469 648.269531 276.96875 645.136719 276.96875 641.269531 L 276.96875 505.921875 C 276.96875 502.054688 280.105469 498.921875 283.96875 498.921875 L 313.96875 498.921875 C 315.003906 498.921875 315.984375 499.144531 316.867188 499.546875 C 320.160156 498.871094 323.519531 498.53125 326.910156 498.53125 C 352.28125 498.53125 373.601563 517.472656 376.503906 542.597656 C 376.726563 544.488281 376.839844 546.425781 376.839844 548.339844 L 376.839844 562.203125 C 385.550781 554.007813 396.886719 549.179688 408.898438 549.179688 C 411.734375 549.179688 414.554688 549.445313 417.328125 549.96875 C 418.304688 549.453125 419.417969 549.160156 420.601563 549.160156 L 450.601563 549.160156 C 454.464844 549.160156 457.601563 552.292969 457.601563 556.160156 L 457.601563 562.328125 L 461.039063 562.328125 L 461.039063 546.539063 C 461.039063 542.675781 464.175781 539.539063 468.039063 539.539063 L 498.039063 539.539063 C 501.90625 539.539063 505.039063 542.675781 505.039063 546.539063 L 505.039063 562.328125 L 508.371094 562.328125 L 508.371094 553.980469 C 508.371094 550.113281 511.503906 546.980469 515.371094 546.980469 L 545.371094 546.980469 C 549.238281 546.980469 552.371094 550.113281 552.371094 553.980469 L 552.371094 556.199219 C 560.273438 550.523438 569.65625 547.371094 579.390625 547.371094 C 589.128906 547.371094 598.507813 550.523438 606.410156 556.199219 L 606.410156 556.148438 C 606.410156 552.285156 609.542969 549.148438 613.410156 549.148438 L 643.410156 549.148438 C 645.042969 549.148438 646.542969 549.707031 647.734375 550.644531 C 650.566406 550.148438 653.449219 549.898438 656.351563 549.898438 C 681.363281 549.898438 702.648438 568.542969 705.863281 593.265625 C 706.136719 595.347656 706.28125 597.523438 706.28125 599.710938 L 706.28125 643.429688 C 706.28125 647.296875 703.144531 650.429688 699.28125 650.429688 L 669.28125 650.429688 C 665.414063 650.429688 662.28125 647.296875 662.28125 643.429688 L 662.28125 599.710938 C 662.28125 596.507813 659.617188 593.898438 656.351563 593.898438 C 653.074219 593.898438 650.410156 596.507813 650.410156 599.710938 L 650.410156 643.429688 C 650.410156 647.296875 647.277344 650.429688 643.410156 650.429688 L 613.410156 650.429688 C 609.542969 650.429688 606.410156 647.296875 606.410156 643.429688 L 606.410156 643.386719 C 598.507813 649.066406 589.128906 652.21875 579.390625 652.21875 C 569.542969 652.21875 560.058594 648.992188 552.101563 643.191406 C 551.261719 646.117188 548.566406 648.261719 545.371094 648.261719 L 519.109375 648.261719 L 519.109375 670.179688 C 519.109375 674.046875 515.976563 677.179688 512.109375 677.179688 "/>
<g clip-path="url(#clip1)" clip-rule="nonzero">
<path style=" stroke:none;fill-rule:nonzero;fill:rgb(10.984802%,10.984802%,10.594177%);fill-opacity:1;" d="M 326.910156 491.53125 C 323.695313 491.53125 320.503906 491.800781 317.355469 492.332031 C 316.273438 492.0625 315.136719 491.921875 313.96875 491.921875 L 283.96875 491.921875 C 276.238281 491.921875 269.96875 498.1875 269.96875 505.921875 L 269.96875 641.269531 C 269.96875 649 276.238281 655.269531 283.96875 655.269531 L 313.96875 655.269531 C 319.800781 655.269531 324.800781 651.703125 326.90625 646.636719 C 329.011719 651.703125 334.007813 655.269531 339.839844 655.269531 L 369.839844 655.269531 C 373.394531 655.269531 376.640625 653.945313 379.109375 651.761719 C 387.847656 657.675781 398.132813 661.03125 408.898438 661.03125 C 415.457031 661.03125 421.855469 659.828125 427.96875 657.449219 L 450.601563 657.449219 C 454.457031 657.449219 457.949219 655.890625 460.484375 653.363281 C 470.144531 671.652344 489.660156 684.179688 512.109375 684.179688 C 519.84375 684.179688 526.109375 677.910156 526.109375 670.179688 L 526.109375 655.261719 L 545.371094 655.261719 C 548.492188 655.261719 551.375 654.238281 553.703125 652.511719 C 561.53125 656.855469 570.320313 659.21875 579.390625 659.21875 C 587.863281 659.21875 596.09375 657.15625 603.523438 653.339844 C 606.054688 655.867188 609.550781 657.429688 613.410156 657.429688 L 643.410156 657.429688 C 649.242188 657.429688 654.238281 653.863281 656.34375 648.796875 C 658.449219 653.863281 663.449219 657.429688 669.28125 657.429688 L 699.28125 657.429688 C 707.011719 657.429688 713.28125 651.160156 713.28125 643.429688 L 713.28125 599.710938 C 713.28125 597.222656 713.117188 594.738281 712.800781 592.328125 C 709.136719 564.164063 684.867188 542.898438 656.351563 542.898438 C 653.921875 542.898438 651.503906 543.054688 649.109375 543.359375 C 647.367188 542.582031 645.441406 542.148438 643.410156 542.148438 L 613.410156 542.148438 C 609.546875 542.148438 606.050781 543.714844 603.515625 546.246094 C 596.089844 542.433594 587.863281 540.371094 579.390625 540.371094 C 571.417969 540.371094 563.65625 542.195313 556.578125 545.589844 C 554.027344 542.183594 549.953125 539.980469 545.371094 539.980469 L 515.371094 539.980469 C 513.765625 539.980469 512.222656 540.25 510.789063 540.746094 C 508.585938 535.90625 503.707031 532.539063 498.039063 532.539063 L 468.039063 532.539063 C 461.628906 532.539063 456.222656 536.847656 454.566406 542.730469 C 453.308594 542.359375 451.976563 542.160156 450.601563 542.160156 L 420.601563 542.160156 C 419.203125 542.160156 417.851563 542.363281 416.578125 542.746094 C 414.042969 542.367188 411.476563 542.179688 408.898438 542.179688 C 400.019531 542.179688 391.464844 544.460938 383.839844 548.578125 L 383.839844 548.339844 C 383.839844 546.160156 383.710938 543.949219 383.453125 541.769531 C 380.144531 513.136719 355.835938 491.53125 326.910156 491.53125 M 408.898438 617.03125 C 415.25 617.03125 420.601563 609.96875 420.601563 601.609375 C 420.601563 593.25 415.25 586.179688 408.898438 586.179688 C 402.558594 586.179688 397.199219 593.25 397.199219 601.609375 C 397.199219 609.96875 402.558594 617.03125 408.898438 617.03125 M 579.390625 615.21875 C 585.730469 615.21875 591.089844 608.148438 591.089844 599.789063 C 591.089844 591.429688 585.730469 584.371094 579.390625 584.371094 C 573.050781 584.371094 567.691406 591.429688 567.691406 599.789063 C 567.691406 608.148438 573.050781 615.21875 579.390625 615.21875 M 326.910156 505.53125 C 348.898438 505.53125 367.089844 522.121094 369.550781 543.398438 C 369.738281 545.019531 369.839844 546.671875 369.839844 548.339844 L 369.839844 585.710938 C 375.761719 568.480469 391.039063 556.179688 408.898438 556.179688 C 412.960938 556.179688 416.890625 556.820313 420.601563 558.011719 L 420.601563 556.160156 L 450.601563 556.160156 L 450.601563 569.328125 L 468.039063 569.328125 L 468.039063 546.539063 L 498.039063 546.539063 L 498.039063 569.328125 L 515.371094 569.328125 L 515.371094 553.980469 L 545.371094 553.980469 L 545.371094 573.539063 C 552.929688 561.949219 565.359375 554.371094 579.390625 554.371094 C 593.421875 554.371094 605.859375 561.960938 613.410156 573.558594 L 613.410156 556.148438 L 643.410156 556.148438 L 643.410156 558.890625 C 647.488281 557.601563 651.839844 556.898438 656.351563 556.898438 C 678.140625 556.898438 696.191406 573.171875 698.921875 594.167969 C 699.160156 595.980469 699.28125 597.828125 699.28125 599.710938 L 699.28125 643.429688 L 669.28125 643.429688 L 669.28125 599.710938 C 669.28125 592.648438 663.480469 586.898438 656.351563 586.898438 C 649.210938 586.898438 643.410156 592.648438 643.410156 599.710938 L 643.410156 643.429688 L 613.410156 643.429688 L 613.410156 626.019531 C 605.859375 637.628906 593.421875 645.21875 579.390625 645.21875 C 565.359375 645.21875 552.929688 637.640625 545.371094 626.039063 L 545.371094 641.261719 L 515.371094 641.261719 L 515.371094 599.328125 L 498.039063 599.328125 L 498.039063 627.371094 C 498.039063 634.429688 504.351563 640.179688 512.109375 640.179688 L 512.109375 670.179688 C 487.808594 670.179688 468.039063 650.96875 468.039063 627.371094 L 468.039063 599.328125 L 450.550781 599.328125 C 450.539063 599.199219 450.539063 599.070313 450.53125 598.941406 L 450.53125 599.328125 L 450.550781 599.328125 C 450.578125 600.089844 450.601563 600.851563 450.601563 601.609375 L 450.601563 643.449219 L 425.140625 643.449219 C 420.140625 645.75 414.660156 647.03125 408.898438 647.03125 C 391.039063 647.03125 375.761719 634.730469 369.839844 617.5 L 369.839844 641.269531 L 339.839844 641.269531 L 339.839844 548.339844 C 339.839844 541.28125 334.039063 535.53125 326.910156 535.53125 C 319.769531 535.53125 313.96875 541.28125 313.96875 548.339844 L 313.96875 641.269531 L 283.96875 641.269531 L 283.96875 505.921875 L 313.96875 505.921875 L 313.96875 507.519531 C 318.050781 506.230469 322.398438 505.53125 326.910156 505.53125 "/>
</g>
<path style=" stroke:none;fill-rule:nonzero;fill:rgb(100%,100%,100%);fill-opacity:1;" d="M 530.371094 556.4375 C 515.703125 556.4375 503.769531 544.503906 503.769531 529.828125 C 503.769531 515.160156 515.703125 503.230469 530.371094 503.230469 C 545.039063 503.230469 556.96875 515.160156 556.96875 529.828125 C 556.96875 544.503906 545.039063 556.4375 530.371094 556.4375 "/>
<path style=" stroke:none;fill-rule:nonzero;fill:rgb(10.984802%,10.984802%,10.594177%);fill-opacity:1;" d="M 530.371094 496.230469 C 511.84375 496.230469 496.769531 511.304688 496.769531 529.828125 C 496.769531 548.363281 511.84375 563.441406 530.371094 563.441406 C 548.898438 563.441406 563.96875 548.363281 563.96875 529.828125 C 563.96875 511.304688 548.898438 496.230469 530.371094 496.230469 M 530.371094 510.230469 C 541.179688 510.230469 549.96875 519.03125 549.96875 529.828125 C 549.96875 540.640625 541.179688 549.441406 530.371094 549.441406 C 519.558594 549.441406 510.769531 540.640625 510.769531 529.828125 C 510.769531 519.03125 519.558594 510.230469 530.371094 510.230469 "/>
<path style=" stroke:none;fill-rule:nonzero;fill:rgb(100%,100%,100%);fill-opacity:1;" d="M 67.609375 561.808594 C 68.390625 560.996094 69.195313 560.214844 70.023438 559.460938 L 67.609375 559.460938 Z M 101.480469 591.007813 C 99.585938 591.007813 96.78125 594.550781 96.78125 599.441406 C 96.78125 604.324219 99.585938 607.859375 101.480469 607.859375 C 103.371094 607.859375 106.179688 604.324219 106.179688 599.441406 C 106.179688 594.550781 103.371094 591.007813 101.480469 591.007813 M 164.109375 591.007813 C 162.21875 591.007813 159.410156 594.550781 159.410156 599.441406 C 159.410156 604.324219 162.21875 607.859375 164.109375 607.859375 C 166.003906 607.859375 168.808594 604.324219 168.808594 599.441406 C 168.808594 594.550781 166.003906 591.007813 164.109375 591.007813 M 226.738281 591.007813 C 224.847656 591.007813 222.039063 594.550781 222.039063 599.441406 C 222.039063 604.324219 224.847656 607.859375 226.738281 607.859375 C 228.632813 607.859375 231.441406 604.324219 231.441406 599.441406 C 231.441406 594.550781 228.632813 591.007813 226.738281 591.007813 M 226.738281 651.859375 C 215.210938 651.859375 204.144531 647.453125 195.421875 639.566406 C 186.707031 647.453125 175.644531 651.859375 164.109375 651.859375 C 152.578125 651.859375 141.511719 647.453125 132.796875 639.566406 C 124.074219 647.453125 113.007813 651.859375 101.480469 651.859375 C 88.488281 651.859375 76.464844 646.277344 67.609375 637.0625 L 67.609375 641.269531 C 67.609375 645.136719 64.476563 648.269531 60.609375 648.269531 L 30.609375 648.269531 C 26.742188 648.269531 23.609375 645.136719 23.609375 641.269531 L 23.609375 559.460938 L 14 559.460938 C 10.132813 559.460938 7 556.324219 7 552.460938 L 7 522.460938 C 7 518.59375 10.132813 515.460938 14 515.460938 L 23.609375 515.460938 L 23.609375 505.917969 C 23.609375 505.460938 23.652344 505.015625 23.738281 504.578125 C 24.46875 477.730469 47.085938 456.109375 74.78125 456.109375 C 102.933594 456.109375 125.839844 478.453125 125.839844 505.917969 C 125.839844 509.785156 122.707031 512.917969 118.839844 512.917969 L 88.839844 512.917969 C 84.972656 512.917969 81.839844 509.785156 81.839844 505.917969 C 81.839844 502.769531 78.605469 500.109375 74.78125 500.109375 C 70.953125 500.109375 67.71875 502.769531 67.71875 505.917969 C 67.71875 506.34375 67.683594 506.757813 67.609375 507.160156 L 67.609375 515.460938 L 88.5 515.460938 C 92.367188 515.460938 95.5 518.59375 95.5 522.460938 L 95.5 547.40625 C 97.464844 547.144531 99.460938 547.011719 101.480469 547.011719 C 113.011719 547.011719 124.074219 551.417969 132.796875 559.308594 C 141.503906 551.417969 152.566406 547.011719 164.109375 547.011719 C 175.644531 547.011719 186.707031 551.417969 195.421875 559.308594 C 204.132813 551.417969 215.199219 547.011719 226.738281 547.011719 C 228.3125 547.011719 229.882813 547.089844 231.441406 547.253906 L 231.441406 505.917969 C 231.441406 502.054688 234.574219 498.917969 238.441406 498.917969 L 268.441406 498.917969 C 272.304688 498.917969 275.441406 502.054688 275.441406 505.917969 L 275.441406 641.269531 C 275.441406 645.136719 272.304688 648.269531 268.441406 648.269531 L 244.453125 648.269531 C 238.804688 650.652344 232.851563 651.859375 226.738281 651.859375 "/>
<path style=" stroke:none;fill-rule:nonzero;fill:rgb(10.984802%,10.984802%,10.594177%);fill-opacity:1;" d="M 74.667969 507.113281 C 74.703125 507.113281 74.742188 507.109375 74.78125 507.109375 C 74.820313 507.109375 74.855469 507.113281 74.890625 507.113281 C 74.929688 507.570313 74.988281 508.019531 75.070313 508.460938 L 74.609375 508.460938 L 74.609375 507.683594 C 74.632813 507.496094 74.652344 507.304688 74.667969 507.113281 M 74.78125 449.109375 C 43.460938 449.109375 17.855469 473.5 16.757813 503.886719 C 16.660156 504.550781 16.609375 505.230469 16.609375 505.921875 L 16.609375 508.460938 L 14 508.460938 C 6.269531 508.460938 0 514.726563 0 522.460938 L 0 552.460938 C 0 560.191406 6.269531 566.460938 14 566.460938 L 16.609375 566.460938 L 16.609375 641.269531 C 16.609375 649 22.878906 655.269531 30.609375 655.269531 L 60.609375 655.269531 C 65.183594 655.269531 69.246094 653.078125 71.800781 649.6875 C 80.460938 655.519531 90.675781 658.859375 101.480469 658.859375 C 112.765625 658.859375 123.648438 655.214844 132.796875 648.570313 C 141.941406 655.214844 152.820313 658.859375 164.109375 658.859375 C 175.398438 658.859375 186.277344 655.214844 195.425781 648.570313 C 204.574219 655.214844 215.453125 658.859375 226.738281 658.859375 C 233.308594 658.859375 239.710938 657.652344 245.820313 655.269531 L 268.441406 655.269531 C 276.171875 655.269531 282.441406 649 282.441406 641.269531 L 282.441406 505.921875 C 282.441406 498.1875 276.171875 491.921875 268.441406 491.921875 L 238.441406 491.921875 C 230.707031 491.921875 224.441406 498.1875 224.441406 505.921875 L 224.441406 540.0625 C 213.972656 540.519531 203.941406 544.109375 195.421875 550.300781 C 186.277344 543.65625 175.398438 540.011719 164.109375 540.011719 C 152.8125 540.011719 141.933594 543.65625 132.792969 550.300781 C 123.921875 543.855469 113.421875 540.234375 102.5 540.019531 L 102.5 522.460938 C 102.5 521.59375 102.421875 520.742188 102.269531 519.921875 L 118.839844 519.921875 C 126.570313 519.921875 132.839844 513.652344 132.839844 505.921875 C 132.839844 474.59375 106.796875 449.109375 74.78125 449.109375 M 101.480469 614.859375 C 107.820313 614.859375 113.179688 607.800781 113.179688 599.441406 C 113.179688 591.070313 107.820313 584.011719 101.480469 584.011719 C 95.140625 584.011719 89.78125 591.070313 89.78125 599.441406 C 89.78125 607.800781 95.140625 614.859375 101.480469 614.859375 M 164.109375 614.859375 C 170.449219 614.859375 175.808594 607.800781 175.808594 599.441406 C 175.808594 591.070313 170.449219 584.011719 164.109375 584.011719 C 157.769531 584.011719 152.410156 591.070313 152.410156 599.441406 C 152.410156 607.800781 157.769531 614.859375 164.109375 614.859375 M 226.738281 614.859375 C 233.078125 614.859375 238.441406 607.800781 238.441406 599.441406 C 238.441406 591.070313 233.078125 584.011719 226.738281 584.011719 C 220.390625 584.011719 215.039063 591.070313 215.039063 599.441406 C 215.039063 607.800781 220.390625 614.859375 226.738281 614.859375 M 74.78125 463.109375 C 99.070313 463.109375 118.839844 482.308594 118.839844 505.921875 L 88.839844 505.921875 C 88.839844 498.851563 82.53125 493.109375 74.78125 493.109375 C 67.03125 493.109375 60.71875 498.851563 60.71875 505.921875 L 60.609375 505.921875 L 60.609375 522.460938 L 88.5 522.460938 L 88.5 552.460938 L 60.609375 552.460938 L 60.609375 590.410156 C 64.460938 569.671875 81.328125 554.011719 101.480469 554.011719 C 113.949219 554.011719 125.148438 560 132.800781 569.480469 C 140.429688 560 151.640625 554.011719 164.109375 554.011719 C 176.578125 554.011719 187.78125 560 195.421875 569.480469 C 203.058594 560 214.269531 554.011719 226.738281 554.011719 C 230.800781 554.011719 234.730469 554.648438 238.441406 555.828125 L 238.441406 505.921875 L 268.441406 505.921875 L 268.441406 641.269531 L 242.980469 641.269531 C 237.980469 643.578125 232.5 644.859375 226.738281 644.859375 C 214.269531 644.859375 203.070313 638.871094 195.421875 629.398438 C 187.78125 638.871094 176.570313 644.859375 164.109375 644.859375 C 151.640625 644.859375 140.441406 638.871094 132.800781 629.398438 C 125.148438 638.871094 113.941406 644.859375 101.480469 644.859375 C 81.328125 644.859375 64.460938 629.199219 60.609375 608.46875 L 60.609375 641.269531 L 30.609375 641.269531 L 30.609375 552.460938 L 14 552.460938 L 14 522.460938 L 30.609375 522.460938 L 30.609375 505.921875 L 30.71875 505.921875 C 30.71875 482.308594 50.480469 463.109375 74.78125 463.109375 "/>
</g>
</svg>
