<svg xmlns="http://www.w3.org/2000/svg" viewBox="0 0 296.48 295.38"><defs><style>.cls-1{fill:#1d1d1b;}</style></defs><g id="Livello_2" data-name="Livello 2"><g id="Livello_1-2" data-name="Livello 1"><path class="cls-1" d="M149.09,295.38,101.8,272.64C58.05,254.92,0,224.08,0,161.14A112.35,112.35,0,0,1,148.25,54.76,112.33,112.33,0,0,1,296.48,161.14c0,27.07-9.87,49.6-30.17,68.86-19,18-44.59,31-69.46,42.4ZM112.27,59.44A101.81,101.81,0,0,0,10.58,161.14c0,56.63,54.41,85.19,95.34,101.75l.31.14,42.86,20.62,43.31-20.84c47.31-21.67,93.51-47.38,93.51-101.67A101.74,101.74,0,0,0,150,65.34l-1.78.63-1.78-.63A101.35,101.35,0,0,0,112.27,59.44Z"/><path class="cls-1" d="M149.08,65.11a11,11,0,0,1-11-11c0-20.74,14.41-37.62,32.13-37.62a11,11,0,0,1,0,21.91c-4.83,0-10.22,6.45-10.22,15.71A11,11,0,0,1,149.08,65.11Z"/><path class="cls-1" d="M120.52,55a130.11,130.11,0,0,1-31.44-3.92c-10.74-2.94-20.32-7.91-27-14-7.59-6.94-10.69-14.67-8.74-21.77S61.93,3.13,72,1C80.81-.8,91.59-.19,102.32,2.76c16.61,4.55,54.51,22.42,49.8,39.62C149.49,52,135.38,55,120.52,55ZM82.68,10.59a42.37,42.37,0,0,0-8.54.8c-5.8,1.21-9.76,3.72-10.57,6.7h0c-.82,3,1.3,7.16,5.68,11.16,5.36,4.9,13.6,9.13,22.63,11.6a110.87,110.87,0,0,0,33.2,3.4c13-.73,16.63-3.92,16.84-4.67s-1.31-5.34-12.1-12.6A111.38,111.38,0,0,0,99.53,13,64.74,64.74,0,0,0,82.68,10.59Zm-24.21,6.1Z"/><path class="cls-1" d="M183,223.45A5.3,5.3,0,0,1,178.8,215a100.13,100.13,0,0,0,20-60.67c0-37.76-20.92-72.51-53.29-88.53a5.29,5.29,0,0,1,4.7-9.48,105,105,0,0,1,42.73,39.3,112,112,0,0,1,16.43,58.71,110.72,110.72,0,0,1-22.1,67A5.29,5.29,0,0,1,183,223.45Z"/></g></g></svg>