<svg xmlns="http://www.w3.org/2000/svg" viewBox="0 0 312.93 328.99"><defs><style>.cls-1{fill:#1d1d1b;}</style></defs><g id="Livello_2" data-name="Livello 2"><g id="Livello_1-2" data-name="Livello 1"><path class="cls-1" d="M34.86,267.81,25.32,253.2A156.68,156.68,0,0,1,13.21,104.83l2.52-5.72,5.16,3.53a16.9,16.9,0,0,0,9.6,3v5.19h4.37ZM20.57,114.13a146.52,146.52,0,0,0,3.91,116.4V115.32A26.71,26.71,0,0,1,20.57,114.13Z"/><path class="cls-1" d="M251.74,96.1l-9-9.53A118.55,118.55,0,0,0,75.75,81L67,89.12V39.42l2.3-1.55a156.54,156.54,0,0,1,180.33,4.28l2.09,1.55ZM156.46,38.91a128.43,128.43,0,0,1,84.9,31.89V49a146.17,146.17,0,0,0-164-4V66A128.45,128.45,0,0,1,156.46,38.91Z"/><path class="cls-1" d="M156.46,324.3A155.57,155.57,0,0,1,47.17,279.8l-1.56-1.53V213.82l9.61,15.74a118.6,118.6,0,0,0,203.39-1.5V183.88l21.13-22V69.78l9.6,15.4A156.48,156.48,0,0,1,156.46,324.3ZM56,273.88a146.08,146.08,0,0,0,204.13-3.11,146.19,146.19,0,0,0,30-162v57.25l-21.13,22v42.79l-.69,1.2A128.89,128.89,0,0,1,56,248.63Z"/><path class="cls-1" d="M156.46,296.77A128.81,128.81,0,0,1,46.37,235l-.76-1.24V110.79H50V105.6a17.06,17.06,0,0,0,17-17V74.94l1.66-1.54a128.81,128.81,0,0,1,181.65,6.06l1.41,1.5V176.3h16.2l12.71-.39L269,188.06v42.79l-.69,1.2a128.89,128.89,0,0,1-111.84,64.72ZM56,230.79a118.59,118.59,0,0,0,202.62-2.73V186.68H241.36V85.1a118.54,118.54,0,0,0-164-5.61v9.06A27.48,27.48,0,0,1,56,115.32ZM268.26,186l-.14-4.5Z"/><path class="cls-1" d="M258.61,248.89v-65l26.86-28-.08,13c0,2.49-.12,5.06-.29,7.66a127.42,127.42,0,0,1-16.8,55.47ZM269,188.06v17.27a117.31,117.31,0,0,0,5.1-22.58Z"/><path class="cls-1" d="M40.23,329a15.78,15.78,0,0,1-15.75-15.76V115.32A27.42,27.42,0,0,1,3.06,88.55V11.88A5.19,5.19,0,0,1,8.25,6.69h64a5.19,5.19,0,0,1,5.19,5.19V88.55A27.48,27.48,0,0,1,56,115.32V313.23A15.77,15.77,0,0,1,40.23,329ZM34.86,113.6V313.23a5.38,5.38,0,1,0,10.75,0V113.6a5.19,5.19,0,0,1,4.36-8,17.06,17.06,0,0,0,17-17V17.07H13.44V88.55a17,17,0,0,0,17,17,5.2,5.2,0,0,1,4.37,8Z"/><path class="cls-1" d="M29.66,82.14A5.2,5.2,0,0,1,24.47,77V14.66a5.19,5.19,0,0,1,10.38,0V77A5.19,5.19,0,0,1,29.66,82.14Z"/><path class="cls-1" d="M50.8,82.14A5.19,5.19,0,0,1,45.61,77V14.66a5.19,5.19,0,0,1,10.38,0V77A5.2,5.2,0,0,1,50.8,82.14Z"/><path class="cls-1" d="M267.42,186.68H246.55a5.2,5.2,0,0,1-5.19-5.19V43.56A43.62,43.62,0,0,1,284.93,0a5.19,5.19,0,0,1,5.19,5.19V164a5.24,5.24,0,0,1-1.44,3.6l-16.82,17.51a5.16,5.16,0,0,1-3.58,1.59ZM251.74,176.3h14.15l13.85-14.43V10.78a33.25,33.25,0,0,0-28,32.78Z"/><path class="cls-1" d="M268.12,186.66a5.19,5.19,0,0,1-3.74-8.78l16.81-17.51a5.19,5.19,0,0,1,8.93,3.59,22.72,22.72,0,0,1-21.8,22.7Z"/><polygon class="cls-1" points="284.93 163.96 284.93 321.59 263.8 321.59 263.8 185.97 268.12 181.47 280.2 168.89 284.93 163.96"/><path class="cls-1" d="M284.93,326.78H263.8a5.19,5.19,0,0,1-5.19-5.19V186a5.2,5.2,0,0,1,1.44-3.59l21.14-22a5.19,5.19,0,0,1,8.93,3.59V321.59A5.19,5.19,0,0,1,284.93,326.78ZM269,316.4h10.75V176.86L269,188.06Z"/></g></g></svg>