<svg xmlns="http://www.w3.org/2000/svg" viewBox="0 0 499.77 332.81"><defs><style>.cls-1{fill:#1d1d1b;}</style></defs><g id="Livello_2" data-name="Livello 2"><g id="Livello_1-2" data-name="Livello 1"><path class="cls-1" d="M371,55.17A128.82,128.82,0,1,0,499.77,184,129,129,0,0,0,371,55.17Zm0,246.64A117.82,117.82,0,1,1,488.77,184,117.95,117.95,0,0,1,371,301.81Z"/><path class="cls-1" d="M250.91,204l-36.6,13.34L227.66,254l36.6-13.34Zm-22.5,19.91,15.94-5.81,5.8,15.93-15.93,5.81Z"/><path class="cls-1" d="M212.37,214.11a17.69,17.69,0,0,0-6.1,1.09L11.69,286.14A17.77,17.77,0,0,0,1.08,308.92l4.46,12.21a17.77,17.77,0,0,0,22.77,10.6L222.9,260.79A17.76,17.76,0,0,0,233.5,238l-4.45-12.21a17.8,17.8,0,0,0-16.68-11.69ZM22.24,321.81a6.78,6.78,0,0,1-6.37-4.45l-4.45-12.21a6.76,6.76,0,0,1,4-8.68L210,225.53a6.76,6.76,0,0,1,8.68,4l4.45,12.21a6.76,6.76,0,0,1-4,8.68L24.55,321.4A6.75,6.75,0,0,1,22.24,321.81Z"/><path class="cls-1" d="M56.17,283.17a11.19,11.19,0,0,0-3.82.68l-18,6.55a11.12,11.12,0,0,0-6.65,14.26l.94,2.56A11.1,11.1,0,0,0,43,313.86l17.95-6.54a11.14,11.14,0,0,0,6.65-14.27l-.94-2.56a11.15,11.15,0,0,0-10.44-7.32Zm-17,20.36a.14.14,0,0,1-.13-.08l-.93-2.56a.15.15,0,0,1,.07-.16l18-6.55a.15.15,0,0,1,.16.08l.93,2.56a.14.14,0,0,1-.07.16l-18,6.55Z"/><path class="cls-1" d="M371,78.5A105.49,105.49,0,1,0,476.43,184,105.61,105.61,0,0,0,371,78.5Zm0,200A94.49,94.49,0,1,1,465.43,184,94.6,94.6,0,0,1,371,278.48Z"/><path class="cls-1" d="M216.45,13.56c-2-.45-15.92,23.3-10,47.71,3.19,13.11,10.89,21.37,15,25.63,19,19.92,47.9,24,59.11,25.64,1.41.2,4.62.62,9.25,1.42,9.89,1.72,18.35,3.18,24.93,5.7C331,125.9,340,140.21,342.49,144.58c8.23,14.36,6.72,27.86,7.83,27.77s3.73-16.91-2.43-34.77a70.54,70.54,0,0,0-19.67-29.51c-16.41-14.21-35.69-16.44-44.36-17.44-7.55-.87-7-.46-12.24-.93C255.1,88.22,242.75,72.6,236.54,65c-12-14.7-16.85-30.48-17.44-35.63-.5-4.36-1.43-8.65-2-13C216.71,14,216.68,13.61,216.45,13.56Z"/><path class="cls-1" d="M318,0c-1.38-.93-18.94,13-21.64,33.23-1.45,10.88,1.94,19.42,3.77,23.85,8.52,20.72,29.21,32.37,37.24,36.89,1,.57,3.32,1.84,6.6,3.81,7,4.22,13,7.83,17.21,11.68,10.53,9.55,13.09,23,13.7,27.1,2,13.31-3.13,23.11-2.26,23.36s7.82-11.72,8.42-27.08a57.23,57.23,0,0,0-6.2-28.18c-8.24-15.61-22.2-23-28.48-26.32-5.47-2.89-5.19-2.42-9-4.32-12.09-6-16.84-21.49-19.31-29.07-4.79-14.7-3.78-28.08-2.7-32.16.9-3.45,1.47-7,2.28-10.45C318.09.45,318.18.15,318,0Z"/><path class="cls-1" d="M234.59,115.61c-1,.2-2.35,13.12,4.94,22.48a26.25,26.25,0,0,0,11.41,8.15c12,4.89,25.28,1.07,30.42-.41.65-.19,2.12-.63,4.27-1.18,4.59-1.18,8.51-2.19,11.83-2.38,8.24-.47,14.87,4,16.79,5.36,6.33,4.59,8.3,10.7,8.76,10.44s-1.67-8-7.79-14.5a33.21,33.21,0,0,0-14.18-8.9c-9.82-2.94-18.56-.17-22.49,1.08-3.42,1.08-3.11,1.16-5.45,2-7.4,2.56-15.75-1.78-19.89-3.84-8-4-13.17-9.86-14.42-12-1.06-1.78-2.29-3.45-3.39-5.2C234.78,115.74,234.7,115.59,234.59,115.61Z"/></g></g></svg>